<svg xmlns="http://www.w3.org/2000/svg" xmlns:xlink="http://www.w3.org/1999/xlink" width="500" zoomAndPan="magnify" viewBox="0 0 375 374.999991" height="500" preserveAspectRatio="xMidYMid meet" version="1.0"><defs><g/><clipPath id="7225da1826"><path d="M 133 109 L 159 109 L 159 135 L 133 135 Z M 133 109 " clip-rule="nonzero"/></clipPath><clipPath id="cc95f6051e"><path d="M 158.300781 121.917969 C 158.300781 115.011719 152.699219 109.410156 145.800781 109.410156 C 138.851562 109.410156 133.230469 115.011719 133.230469 121.917969 C 133.230469 128.824219 138.832031 134.429688 145.800781 134.429688 C 152.699219 134.453125 158.300781 128.824219 158.300781 121.917969 Z M 158.300781 121.917969 " clip-rule="evenodd"/></clipPath><linearGradient x1="39326.595029" gradientTransform="matrix(0.00624034, 0, 0, -0.0062443, -99.859566, -116.309837)" y1="-40191.232273" x2="39394.213375" gradientUnits="userSpaceOnUse" y2="-36115.10482" id="231b7eab59"><stop stop-opacity="1" stop-color="rgb(94.099426%, 37.599182%, 31.399536%)" offset="0"/><stop stop-opacity="1" stop-color="rgb(94.104004%, 37.64801%, 31.373596%)" offset="0.0163465"/><stop stop-opacity="1" stop-color="rgb(94.108582%, 37.698364%, 31.347656%)" offset="0.03125"/><stop stop-opacity="1" stop-color="rgb(94.12384%, 37.854004%, 31.268311%)" offset="0.0390625"/><stop stop-opacity="1" stop-color="rgb(94.154358%, 38.165283%, 31.108093%)" offset="0.046875"/><stop stop-opacity="1" stop-color="rgb(94.184875%, 38.475037%, 30.947876%)" offset="0.0546875"/><stop stop-opacity="1" stop-color="rgb(94.215393%, 38.786316%, 30.789185%)" offset="0.0625"/><stop stop-opacity="1" stop-color="rgb(94.245911%, 39.097595%, 30.628967%)" offset="0.0703125"/><stop stop-opacity="1" stop-color="rgb(94.276428%, 39.407349%, 30.46875%)" offset="0.078125"/><stop stop-opacity="1" stop-color="rgb(94.306946%, 39.718628%, 30.310059%)" offset="0.0859375"/><stop stop-opacity="1" stop-color="rgb(94.337463%, 40.028381%, 30.149841%)" offset="0.09375"/><stop stop-opacity="1" stop-color="rgb(94.367981%, 40.339661%, 29.989624%)" offset="0.101562"/><stop stop-opacity="1" stop-color="rgb(94.398499%, 40.65094%, 29.830933%)" offset="0.109375"/><stop stop-opacity="1" stop-color="rgb(94.429016%, 40.960693%, 29.670715%)" offset="0.117188"/><stop stop-opacity="1" stop-color="rgb(94.459534%, 41.271973%, 29.512024%)" offset="0.125"/><stop stop-opacity="1" stop-color="rgb(94.490051%, 41.583252%, 29.351807%)" offset="0.132812"/><stop stop-opacity="1" stop-color="rgb(94.520569%, 41.893005%, 29.191589%)" offset="0.140625"/><stop stop-opacity="1" stop-color="rgb(94.551086%, 42.204285%, 29.032898%)" offset="0.148438"/><stop stop-opacity="1" stop-color="rgb(94.581604%, 42.515564%, 28.872681%)" offset="0.15625"/><stop stop-opacity="1" stop-color="rgb(94.612122%, 42.825317%, 28.712463%)" offset="0.164062"/><stop stop-opacity="1" stop-color="rgb(94.642639%, 43.136597%, 28.553772%)" offset="0.171875"/><stop stop-opacity="1" stop-color="rgb(94.673157%, 43.447876%, 28.393555%)" offset="0.179687"/><stop stop-opacity="1" stop-color="rgb(94.703674%, 43.757629%, 28.233337%)" offset="0.1875"/><stop stop-opacity="1" stop-color="rgb(94.734192%, 44.068909%, 28.074646%)" offset="0.195312"/><stop stop-opacity="1" stop-color="rgb(94.764709%, 44.380188%, 27.914429%)" offset="0.203125"/><stop stop-opacity="1" stop-color="rgb(94.795227%, 44.689941%, 27.754211%)" offset="0.210937"/><stop stop-opacity="1" stop-color="rgb(94.825745%, 45.001221%, 27.59552%)" offset="0.21875"/><stop stop-opacity="1" stop-color="rgb(94.856262%, 45.3125%, 27.435303%)" offset="0.226562"/><stop stop-opacity="1" stop-color="rgb(94.88678%, 45.622253%, 27.275085%)" offset="0.234375"/><stop stop-opacity="1" stop-color="rgb(94.917297%, 45.933533%, 27.116394%)" offset="0.242187"/><stop stop-opacity="1" stop-color="rgb(94.947815%, 46.244812%, 26.956177%)" offset="0.25"/><stop stop-opacity="1" stop-color="rgb(94.978333%, 46.554565%, 26.795959%)" offset="0.257812"/><stop stop-opacity="1" stop-color="rgb(95.00885%, 46.865845%, 26.637268%)" offset="0.265625"/><stop stop-opacity="1" stop-color="rgb(95.039368%, 47.177124%, 26.477051%)" offset="0.273438"/><stop stop-opacity="1" stop-color="rgb(95.069885%, 47.486877%, 26.318359%)" offset="0.28125"/><stop stop-opacity="1" stop-color="rgb(95.100403%, 47.798157%, 26.158142%)" offset="0.289062"/><stop stop-opacity="1" stop-color="rgb(95.13092%, 48.109436%, 25.997925%)" offset="0.296875"/><stop stop-opacity="1" stop-color="rgb(95.162964%, 48.419189%, 25.839233%)" offset="0.304688"/><stop stop-opacity="1" stop-color="rgb(95.193481%, 48.730469%, 25.679016%)" offset="0.3125"/><stop stop-opacity="1" stop-color="rgb(95.223999%, 49.041748%, 25.518799%)" offset="0.320312"/><stop stop-opacity="1" stop-color="rgb(95.254517%, 49.351501%, 25.360107%)" offset="0.328125"/><stop stop-opacity="1" stop-color="rgb(95.285034%, 49.662781%, 25.19989%)" offset="0.335937"/><stop stop-opacity="1" stop-color="rgb(95.315552%, 49.972534%, 25.039673%)" offset="0.34375"/><stop stop-opacity="1" stop-color="rgb(95.346069%, 50.283813%, 24.880981%)" offset="0.351562"/><stop stop-opacity="1" stop-color="rgb(95.376587%, 50.595093%, 24.720764%)" offset="0.359375"/><stop stop-opacity="1" stop-color="rgb(95.407104%, 50.904846%, 24.560547%)" offset="0.367187"/><stop stop-opacity="1" stop-color="rgb(95.437622%, 51.216125%, 24.401855%)" offset="0.375"/><stop stop-opacity="1" stop-color="rgb(95.46814%, 51.527405%, 24.241638%)" offset="0.382813"/><stop stop-opacity="1" stop-color="rgb(95.498657%, 51.837158%, 24.081421%)" offset="0.390625"/><stop stop-opacity="1" stop-color="rgb(95.529175%, 52.148438%, 23.922729%)" offset="0.398438"/><stop stop-opacity="1" stop-color="rgb(95.559692%, 52.459717%, 23.762512%)" offset="0.40625"/><stop stop-opacity="1" stop-color="rgb(95.59021%, 52.76947%, 23.602295%)" offset="0.414062"/><stop stop-opacity="1" stop-color="rgb(95.620728%, 53.08075%, 23.443604%)" offset="0.421875"/><stop stop-opacity="1" stop-color="rgb(95.651245%, 53.392029%, 23.283386%)" offset="0.429688"/><stop stop-opacity="1" stop-color="rgb(95.681763%, 53.701782%, 23.124695%)" offset="0.4375"/><stop stop-opacity="1" stop-color="rgb(95.71228%, 54.013062%, 22.964478%)" offset="0.445312"/><stop stop-opacity="1" stop-color="rgb(95.742798%, 54.324341%, 22.80426%)" offset="0.453125"/><stop stop-opacity="1" stop-color="rgb(95.773315%, 54.634094%, 22.645569%)" offset="0.460937"/><stop stop-opacity="1" stop-color="rgb(95.803833%, 54.945374%, 22.485352%)" offset="0.46875"/><stop stop-opacity="1" stop-color="rgb(95.834351%, 55.256653%, 22.325134%)" offset="0.476562"/><stop stop-opacity="1" stop-color="rgb(95.864868%, 55.566406%, 22.166443%)" offset="0.484375"/><stop stop-opacity="1" stop-color="rgb(95.895386%, 55.877686%, 22.006226%)" offset="0.492187"/><stop stop-opacity="1" stop-color="rgb(95.925903%, 56.188965%, 21.846008%)" offset="0.5"/><stop stop-opacity="1" stop-color="rgb(95.956421%, 56.498718%, 21.687317%)" offset="0.507812"/><stop stop-opacity="1" stop-color="rgb(95.986938%, 56.809998%, 21.5271%)" offset="0.515625"/><stop stop-opacity="1" stop-color="rgb(96.017456%, 57.121277%, 21.366882%)" offset="0.523438"/><stop stop-opacity="1" stop-color="rgb(96.047974%, 57.43103%, 21.208191%)" offset="0.53125"/><stop stop-opacity="1" stop-color="rgb(96.078491%, 57.74231%, 21.047974%)" offset="0.539062"/><stop stop-opacity="1" stop-color="rgb(96.109009%, 58.053589%, 20.887756%)" offset="0.546875"/><stop stop-opacity="1" stop-color="rgb(96.139526%, 58.363342%, 20.729065%)" offset="0.554688"/><stop stop-opacity="1" stop-color="rgb(96.170044%, 58.674622%, 20.568848%)" offset="0.5625"/><stop stop-opacity="1" stop-color="rgb(96.200562%, 58.985901%, 20.40863%)" offset="0.570313"/><stop stop-opacity="1" stop-color="rgb(96.231079%, 59.295654%, 20.249939%)" offset="0.578125"/><stop stop-opacity="1" stop-color="rgb(96.261597%, 59.606934%, 20.089722%)" offset="0.585937"/><stop stop-opacity="1" stop-color="rgb(96.292114%, 59.918213%, 19.93103%)" offset="0.59375"/><stop stop-opacity="1" stop-color="rgb(96.322632%, 60.227966%, 19.770813%)" offset="0.601562"/><stop stop-opacity="1" stop-color="rgb(96.353149%, 60.539246%, 19.610596%)" offset="0.609375"/><stop stop-opacity="1" stop-color="rgb(96.383667%, 60.848999%, 19.451904%)" offset="0.617188"/><stop stop-opacity="1" stop-color="rgb(96.414185%, 61.160278%, 19.291687%)" offset="0.625"/><stop stop-opacity="1" stop-color="rgb(96.444702%, 61.471558%, 19.13147%)" offset="0.632812"/><stop stop-opacity="1" stop-color="rgb(96.47522%, 61.781311%, 18.972778%)" offset="0.640625"/><stop stop-opacity="1" stop-color="rgb(96.505737%, 62.09259%, 18.812561%)" offset="0.648438"/><stop stop-opacity="1" stop-color="rgb(96.536255%, 62.40387%, 18.652344%)" offset="0.65625"/><stop stop-opacity="1" stop-color="rgb(96.566772%, 62.713623%, 18.493652%)" offset="0.664063"/><stop stop-opacity="1" stop-color="rgb(96.59729%, 63.024902%, 18.333435%)" offset="0.671875"/><stop stop-opacity="1" stop-color="rgb(96.627808%, 63.336182%, 18.173218%)" offset="0.679687"/><stop stop-opacity="1" stop-color="rgb(96.658325%, 63.645935%, 18.014526%)" offset="0.6875"/><stop stop-opacity="1" stop-color="rgb(96.688843%, 63.957214%, 17.854309%)" offset="0.695312"/><stop stop-opacity="1" stop-color="rgb(96.71936%, 64.268494%, 17.694092%)" offset="0.703125"/><stop stop-opacity="1" stop-color="rgb(96.749878%, 64.578247%, 17.5354%)" offset="0.710938"/><stop stop-opacity="1" stop-color="rgb(96.780396%, 64.889526%, 17.375183%)" offset="0.71875"/><stop stop-opacity="1" stop-color="rgb(96.810913%, 65.200806%, 17.214966%)" offset="0.726562"/><stop stop-opacity="1" stop-color="rgb(96.841431%, 65.510559%, 17.056274%)" offset="0.734375"/><stop stop-opacity="1" stop-color="rgb(96.871948%, 65.821838%, 16.896057%)" offset="0.742188"/><stop stop-opacity="1" stop-color="rgb(96.902466%, 66.133118%, 16.737366%)" offset="0.75"/><stop stop-opacity="1" stop-color="rgb(96.932983%, 66.442871%, 16.577148%)" offset="0.757812"/><stop stop-opacity="1" stop-color="rgb(96.963501%, 66.75415%, 16.416931%)" offset="0.765625"/><stop stop-opacity="1" stop-color="rgb(96.994019%, 67.06543%, 16.25824%)" offset="0.773438"/><stop stop-opacity="1" stop-color="rgb(97.024536%, 67.375183%, 16.098022%)" offset="0.78125"/><stop stop-opacity="1" stop-color="rgb(97.055054%, 67.686462%, 15.937805%)" offset="0.789062"/><stop stop-opacity="1" stop-color="rgb(97.085571%, 67.997742%, 15.779114%)" offset="0.796875"/><stop stop-opacity="1" stop-color="rgb(97.116089%, 68.307495%, 15.618896%)" offset="0.804688"/><stop stop-opacity="1" stop-color="rgb(97.146606%, 68.618774%, 15.458679%)" offset="0.8125"/><stop stop-opacity="1" stop-color="rgb(97.177124%, 68.930054%, 15.299988%)" offset="0.820313"/><stop stop-opacity="1" stop-color="rgb(97.207642%, 69.239807%, 15.139771%)" offset="0.828125"/><stop stop-opacity="1" stop-color="rgb(97.238159%, 69.551086%, 14.979553%)" offset="0.835937"/><stop stop-opacity="1" stop-color="rgb(97.268677%, 69.862366%, 14.820862%)" offset="0.84375"/><stop stop-opacity="1" stop-color="rgb(97.299194%, 70.172119%, 14.660645%)" offset="0.851562"/><stop stop-opacity="1" stop-color="rgb(97.329712%, 70.483398%, 14.500427%)" offset="0.859375"/><stop stop-opacity="1" stop-color="rgb(97.360229%, 70.793152%, 14.341736%)" offset="0.867188"/><stop stop-opacity="1" stop-color="rgb(97.390747%, 71.104431%, 14.181519%)" offset="0.875"/><stop stop-opacity="1" stop-color="rgb(97.421265%, 71.41571%, 14.021301%)" offset="0.882812"/><stop stop-opacity="1" stop-color="rgb(97.451782%, 71.725464%, 13.86261%)" offset="0.890625"/><stop stop-opacity="1" stop-color="rgb(97.4823%, 72.036743%, 13.702393%)" offset="0.898438"/><stop stop-opacity="1" stop-color="rgb(97.512817%, 72.348022%, 13.543701%)" offset="0.90625"/><stop stop-opacity="1" stop-color="rgb(97.543335%, 72.657776%, 13.383484%)" offset="0.914063"/><stop stop-opacity="1" stop-color="rgb(97.573853%, 72.969055%, 13.223267%)" offset="0.921875"/><stop stop-opacity="1" stop-color="rgb(97.60437%, 73.280334%, 13.064575%)" offset="0.929687"/><stop stop-opacity="1" stop-color="rgb(97.634888%, 73.590088%, 12.904358%)" offset="0.9375"/><stop stop-opacity="1" stop-color="rgb(97.665405%, 73.901367%, 12.744141%)" offset="0.945312"/><stop stop-opacity="1" stop-color="rgb(97.695923%, 74.212646%, 12.585449%)" offset="0.953125"/><stop stop-opacity="1" stop-color="rgb(97.72644%, 74.5224%, 12.425232%)" offset="0.960938"/><stop stop-opacity="1" stop-color="rgb(97.756958%, 74.833679%, 12.265015%)" offset="0.96875"/><stop stop-opacity="1" stop-color="rgb(97.787476%, 75.144958%, 12.106323%)" offset="0.976562"/><stop stop-opacity="1" stop-color="rgb(97.817993%, 75.454712%, 11.946106%)" offset="0.983654"/><stop stop-opacity="1" stop-color="rgb(97.833252%, 75.610352%, 11.86676%)" offset="0.984375"/><stop stop-opacity="1" stop-color="rgb(97.848511%, 75.765991%, 11.785889%)" offset="0.992188"/><stop stop-opacity="1" stop-color="rgb(97.879028%, 76.077271%, 11.627197%)" offset="1"/></linearGradient><clipPath id="7a75095b9e"><path d="M 86.605469 94.339844 L 197 94.339844 L 197 177.566406 L 86.605469 177.566406 Z M 86.605469 94.339844 " clip-rule="nonzero"/></clipPath></defs><path fill="#25ace0" d="M 191.886719 164.988281 C 188.90625 170.503906 182.667969 174.367188 172.4375 173.617188 C 163.792969 172.976562 160.21875 171.675781 157.640625 170.75 C 152.832031 168.960938 150.980469 168.320312 131.929688 173.835938 C 129.746094 174.476562 127.519531 174.519531 125.335938 174.035156 C 123.308594 173.59375 121.367188 172.691406 119.734375 171.300781 C 119.492188 170.703125 119.292969 170.109375 119.140625 169.511719 C 119.050781 164.4375 119.976562 160.621094 121.917969 157.996094 L 122.160156 159.140625 L 126.175781 158.195312 L 125.578125 155.566406 L 128.554688 154.816406 L 129.039062 157.046875 L 133.054688 156.164062 L 132.503906 153.691406 C 143.816406 153.582031 148.179688 157.066406 159.558594 151.109375 C 170.628906 145.308594 178.167969 138.003906 190.320312 147.582031 C 191.265625 148.726562 192.195312 149.917969 193.054688 151.109375 C 193.054688 151.15625 193.097656 151.15625 193.097656 151.199219 C 194.421875 155.789062 194.132812 160.863281 191.886719 164.988281 Z M 191.886719 164.988281 " fill-opacity="1" fill-rule="evenodd"/><path fill="#167cc4" d="M 132.546875 153.648438 C 143.859375 153.558594 148.226562 157.023438 159.601562 151.066406 C 170.671875 145.261719 178.214844 137.960938 190.363281 147.535156 C 179.292969 134.628906 167.542969 142.8125 156.40625 148.925781 C 152.546875 151.066406 146.8125 151.707031 139.292969 150.867188 C 136.671875 150.582031 134.179688 150.472656 131.839844 150.625 Z M 121.191406 154.617188 C 118.300781 157.554688 117.265625 162.320312 119.140625 169.511719 C 119.050781 164.4375 119.976562 160.621094 121.917969 157.996094 Z M 121.191406 154.617188 " fill-opacity="1" fill-rule="evenodd"/><path fill="#17506f" d="M 114.929688 145.375 C 114.839844 143.628906 115.28125 142.484375 115.921875 141.886719 C 116.164062 141.644531 116.472656 141.492188 116.800781 141.445312 C 117.089844 141.359375 117.441406 141.402344 117.792969 141.535156 C 118.785156 141.933594 119.667969 143.078125 120.132812 145.066406 L 123.019531 157.773438 L 124.894531 157.332031 L 124.300781 154.75 L 129.414062 153.40625 L 129.902344 155.679688 L 131.730469 155.28125 L 128.84375 142.570312 C 128.402344 140.585938 127.496094 139.195312 126.460938 138.355469 C 125.820312 137.804688 125.070312 137.519531 124.320312 137.476562 C 123.527344 137.386719 122.777344 137.5625 122.09375 137.960938 C 121.300781 138.445312 120.617188 139.351562 120.21875 140.542969 L 122.050781 141.09375 C 122.25 140.34375 122.644531 139.859375 123.085938 139.613281 C 123.375 139.417969 123.769531 139.328125 124.125 139.371094 C 124.519531 139.417969 124.917969 139.570312 125.269531 139.859375 C 126.019531 140.410156 126.613281 141.402344 126.945312 142.792969 L 121.785156 144.027344 C 121.144531 141.800781 119.84375 140.363281 118.5 139.8125 C 117.816406 139.527344 117.109375 139.460938 116.425781 139.570312 C 115.789062 139.660156 115.148438 140.011719 114.597656 140.519531 C 113.605469 141.46875 112.921875 143.101562 113.011719 145.394531 Z M 128.972656 151.574219 L 123.859375 152.921875 L 123.21875 149.941406 L 128.335938 148.75 Z M 127.917969 146.851562 L 122.757812 148.085938 L 122.269531 145.859375 L 127.386719 144.625 Z M 127.917969 146.851562 " fill-opacity="1" fill-rule="nonzero"/><g clip-path="url(#7225da1826)"><g clip-path="url(#cc95f6051e)"><path fill="url(#231b7eab59)" d="M 133.230469 134.453125 L 133.230469 109.410156 L 158.300781 109.410156 L 158.300781 134.453125 Z M 133.230469 134.453125 " fill-rule="nonzero"/></g></g><g clip-path="url(#7a75095b9e)"><path fill="#17506f" d="M 196.007812 150.339844 C 194.53125 144.976562 191.003906 140.121094 185.820312 137.320312 C 178.433594 133.394531 167.605469 133.703125 154.3125 142.878906 C 151.929688 144.511719 149.4375 145.617188 146.769531 146.101562 C 144.101562 146.542969 141.257812 146.5 138.28125 145.859375 C 130.894531 143.585938 128.753906 124.65625 130.695312 121.632812 C 132.679688 118.542969 135.699219 120.484375 138.390625 120.683594 C 138.148438 120.441406 138.039062 120.332031 137.75 120.042969 L 137.066406 119.292969 C 139.25 119.535156 142.183594 121.34375 143.527344 122.273438 C 145.910156 123.949219 146.351562 124.855469 148.09375 127.347656 C 148.046875 126.15625 147.695312 125.800781 147.453125 124.917969 C 149.039062 125.800781 150.386719 127.988281 150.714844 130.632812 C 151.953125 127.699219 151.464844 123.375 150.230469 120.707031 C 149.546875 119.226562 148.953125 118.324219 147.894531 117.285156 C 146.417969 115.808594 144.960938 115.609375 144.234375 115.011719 L 146.0625 114.769531 C 144.320312 113.535156 141.058594 113.09375 138.476562 113.226562 C 135.304688 113.425781 133.671875 114.460938 131.136719 115.277344 C 131.53125 114.242188 132.613281 113.292969 133.671875 112.804688 C 135.148438 112.054688 136.140625 112.210938 137.949219 111.96875 C 137.859375 111.96875 134.730469 111.085938 134.621094 111.019531 C 139.425781 108.039062 141.476562 108.96875 147.628906 108.679688 C 146.546875 107.84375 145.359375 107.886719 144.144531 107.402344 C 144.101562 107.402344 144.058594 107.355469 143.992188 107.355469 C 146.570312 106.5625 151.136719 107.796875 153.714844 108.304688 C 151.53125 105.570312 143.792969 102.945312 139.183594 103.140625 C 136.363281 103.296875 135.921875 103.980469 133.980469 104.578125 L 135.214844 102.746094 C 132.746094 103.140625 130.648438 104.222656 129.304688 105.480469 C 127.671875 106.960938 127.121094 108.8125 126.417969 111.195312 C 126.175781 109.453125 126.328125 107.53125 126.769531 105.988281 C 127.363281 104.003906 128.246094 103.40625 128.953125 102.015625 C 127.320312 101.972656 127.410156 102.171875 126.21875 102.613281 C 126.175781 98.441406 126.96875 97.050781 129.152344 94.867188 C 125.226562 94.316406 123.242188 95.308594 121.167969 98.53125 C 120.285156 99.875 120.332031 100.804688 119.691406 101.199219 C 119.339844 100.363281 119.449219 100.164062 119.292969 99.566406 L 119.007812 98.882812 C 117.265625 102.699219 118.457031 105.238281 119.292969 109.078125 C 118.542969 108.59375 118.015625 107.644531 117.507812 107.027344 C 115.921875 105.195312 113.539062 103.007812 111.511719 101.554688 C 109.085938 99.832031 106.0625 98.53125 102.933594 98.488281 C 101.542969 98.441406 100.351562 98.882812 99.601562 98.882812 C 101.082031 99.125 102.140625 99.082031 103.085938 99.832031 C 99.117188 99.988281 96.425781 100.472656 93.207031 101.972656 C 90.960938 103.007812 87.542969 105.546875 86.660156 107.421875 C 89.59375 107.027344 91.179688 106.429688 94.597656 106.871094 C 93.957031 108.019531 93.363281 108.0625 93.011719 109.851562 C 94.996094 109.363281 95.457031 108.414062 99.957031 107.777344 C 102.292969 107.421875 106.261719 107.222656 108.601562 107.621094 C 106.921875 107.972656 104.785156 108.703125 103.726562 109.671875 C 107.296875 109.628906 108.378906 109.429688 111.621094 110.710938 C 113.871094 111.59375 116.140625 113.09375 117.132812 114.726562 C 115.347656 113.777344 112.765625 111.988281 109.878906 112.34375 C 110.5625 112.828125 110.960938 113.09375 111.421875 113.621094 C 107.167969 112.828125 104.875 111.835938 100.351562 113.621094 C 97.574219 114.703125 94.75 117.152344 93.890625 120.132812 C 97.222656 118.699219 98.058594 117.550781 102.976562 117.507812 C 102.535156 118.144531 101.699219 119.09375 101.585938 119.933594 C 104.125 119.183594 106.859375 118.851562 109.835938 118.851562 C 111.421875 118.851562 116.382812 119.207031 117.683594 120.527344 C 113.914062 119.976562 112.082031 119.382812 107.851562 119.933594 C 105.226562 120.332031 101.5 121.367188 100.398438 123.023438 C 101.742188 122.78125 102.46875 122.46875 104.011719 122.625 C 101.585938 124.964844 100.882812 125.050781 98.742188 128.230469 C 97.550781 129.972656 95.964844 133.546875 95.765625 136.21875 L 97.15625 134.386719 C 98.542969 132.640625 100.640625 130.765625 103.152344 130.457031 C 102.667969 131.539062 102.007812 132.730469 102.117188 134.273438 C 103.152344 131.40625 109.0625 126.289062 112.789062 125.539062 C 112.390625 126.574219 111.554688 127.28125 111.753906 128.757812 C 112.699219 126.222656 120.640625 122.140625 125.070312 126.066406 C 127.695312 129.949219 129.195312 135.953125 131.023438 144.800781 L 131.511719 147.074219 L 131.597656 147.46875 C 133.382812 147.667969 135.371094 148.066406 137.507812 148.75 L 137.664062 148.75 C 141.035156 149.5 144.253906 149.589844 147.34375 149.035156 C 150.277344 148.484375 153.054688 147.359375 155.679688 145.617188 L 159.050781 143.386719 C 169.855469 136.878906 178.457031 136.789062 184.410156 139.96875 C 188.820312 142.308594 191.796875 146.476562 193.140625 151.132812 C 194.421875 155.746094 194.132812 160.820312 191.90625 164.945312 C 188.929688 170.460938 182.667969 174.324219 172.457031 173.59375 C 163.816406 172.953125 160.242188 171.652344 157.664062 170.726562 C 156.980469 170.484375 156.382812 170.242188 155.722656 170.042969 L 151.355469 169.492188 C 147.9375 169.578125 142.667969 170.726562 131.953125 173.816406 C 129.769531 174.453125 127.542969 174.5 125.359375 174.015625 C 123.21875 173.574219 121.191406 172.578125 119.449219 171.078125 C 117.464844 169.335938 116.074219 167.109375 115.390625 164.613281 C 114.707031 162.1875 114.640625 159.539062 115.433594 157.023438 C 116.183594 154.488281 117.664062 152.300781 119.601562 150.667969 L 119.800781 150.515625 L 119.050781 147.292969 C 118.566406 147.648438 118.101562 147.976562 117.664062 148.375 C 115.28125 150.359375 113.496094 153.03125 112.546875 156.121094 C 111.597656 159.253906 111.597656 162.472656 112.457031 165.453125 C 113.296875 168.429688 115.039062 171.210938 117.464844 173.351562 C 119.601562 175.183594 122.074219 176.375 124.71875 176.96875 C 127.34375 177.566406 130.121094 177.457031 132.8125 176.726562 C 150.9375 171.453125 152.457031 172.070312 156.625 173.550781 C 159.40625 174.542969 163.21875 175.933594 172.261719 176.640625 C 183.835938 177.476562 191.113281 172.867188 194.554688 166.421875 C 197.15625 161.546875 197.550781 155.679688 196.007812 150.339844 Z M 196.007812 150.339844 " fill-opacity="1" fill-rule="nonzero"/><path fill="#17506f" d="M 196.007812 150.339844 C 194.53125 144.976562 191.003906 140.121094 185.820312 137.320312 C 178.433594 133.394531 167.605469 133.703125 154.3125 142.878906 C 151.929688 144.511719 149.4375 145.617188 146.769531 146.101562 C 144.101562 146.542969 141.257812 146.5 138.28125 145.859375 C 130.894531 143.585938 128.753906 124.65625 130.695312 121.632812 C 132.679688 118.542969 135.699219 120.484375 138.390625 120.683594 C 138.148438 120.441406 138.039062 120.332031 137.75 120.042969 L 137.066406 119.292969 C 139.25 119.535156 142.183594 121.34375 143.527344 122.273438 C 145.910156 123.949219 146.351562 124.855469 148.09375 127.347656 C 148.046875 126.15625 147.695312 125.800781 147.453125 124.917969 C 149.039062 125.800781 150.386719 127.988281 150.714844 130.632812 C 151.953125 127.699219 151.464844 123.375 150.230469 120.707031 C 149.546875 119.226562 148.953125 118.324219 147.894531 117.285156 C 146.417969 115.808594 144.960938 115.609375 144.234375 115.011719 L 146.0625 114.769531 C 144.320312 113.535156 141.058594 113.09375 138.476562 113.226562 C 135.304688 113.425781 133.671875 114.460938 131.136719 115.277344 C 131.53125 114.242188 132.613281 113.292969 133.671875 112.804688 C 135.148438 112.054688 136.140625 112.210938 137.949219 111.96875 C 137.859375 111.96875 134.730469 111.085938 134.621094 111.019531 C 139.425781 108.039062 141.476562 108.96875 147.628906 108.679688 C 146.546875 107.84375 145.359375 107.886719 144.144531 107.402344 C 144.101562 107.402344 144.058594 107.355469 143.992188 107.355469 C 146.570312 106.5625 151.136719 107.796875 153.714844 108.304688 C 151.53125 105.570312 143.792969 102.945312 139.183594 103.140625 C 136.363281 103.296875 135.921875 103.980469 133.980469 104.578125 L 135.214844 102.746094 C 132.746094 103.140625 130.648438 104.222656 129.304688 105.480469 C 127.671875 106.960938 127.121094 108.8125 126.417969 111.195312 C 126.175781 109.453125 126.328125 107.53125 126.769531 105.988281 C 127.363281 104.003906 128.246094 103.40625 128.953125 102.015625 C 127.320312 101.972656 127.410156 102.171875 126.21875 102.613281 C 126.175781 98.441406 126.96875 97.050781 129.152344 94.867188 C 125.226562 94.316406 123.242188 95.308594 121.167969 98.53125 C 120.285156 99.875 120.332031 100.804688 119.691406 101.199219 C 119.339844 100.363281 119.449219 100.164062 119.292969 99.566406 L 119.007812 98.882812 C 117.265625 102.699219 118.457031 105.238281 119.292969 109.078125 C 118.542969 108.59375 118.015625 107.644531 117.507812 107.027344 C 115.921875 105.195312 113.539062 103.007812 111.511719 101.554688 C 109.085938 99.832031 106.0625 98.53125 102.933594 98.488281 C 101.542969 98.441406 100.351562 98.882812 99.601562 98.882812 C 101.082031 99.125 102.140625 99.082031 103.066406 99.832031 C 99.097656 99.988281 96.40625 100.472656 93.1875 101.972656 C 90.960938 103.007812 87.542969 105.546875 86.660156 107.421875 C 89.59375 107.027344 91.179688 106.429688 94.597656 106.871094 C 93.957031 108.019531 93.363281 108.0625 93.011719 109.851562 C 94.996094 109.363281 95.457031 108.414062 99.957031 107.777344 C 102.292969 107.421875 106.261719 107.222656 108.601562 107.621094 C 106.921875 107.972656 104.785156 108.703125 103.726562 109.671875 C 107.296875 109.628906 108.378906 109.429688 111.621094 110.710938 C 113.871094 111.59375 116.140625 113.09375 117.132812 114.726562 C 115.347656 113.777344 112.765625 111.988281 109.878906 112.34375 C 110.5625 112.828125 110.960938 113.09375 111.421875 113.621094 C 107.167969 112.828125 104.875 111.835938 100.351562 113.621094 C 97.574219 114.703125 94.75 117.152344 93.890625 120.132812 C 97.222656 118.699219 98.058594 117.550781 102.976562 117.507812 C 102.535156 118.144531 101.699219 119.09375 101.585938 119.933594 C 104.125 119.183594 106.859375 118.851562 109.835938 118.851562 C 111.421875 118.851562 116.382812 119.207031 117.683594 120.527344 C 113.914062 119.976562 112.082031 119.382812 107.851562 119.933594 C 105.226562 120.332031 101.5 121.367188 100.398438 123.023438 C 101.742188 122.78125 102.46875 122.46875 104.011719 122.625 C 101.585938 124.964844 100.882812 125.050781 98.742188 128.230469 C 97.550781 129.972656 95.964844 133.546875 95.765625 136.21875 L 97.15625 134.386719 C 98.542969 132.640625 100.640625 130.765625 103.152344 130.457031 C 102.667969 131.539062 102.007812 132.730469 102.117188 134.273438 C 103.152344 131.40625 109.0625 126.289062 112.789062 125.539062 C 112.390625 126.574219 111.554688 127.28125 111.753906 128.757812 C 112.699219 126.222656 120.640625 122.140625 125.070312 126.066406 C 127.695312 129.949219 129.195312 135.953125 131.023438 144.800781 L 131.511719 147.074219 L 131.597656 147.46875 C 133.382812 147.667969 135.371094 148.066406 137.507812 148.75 L 137.664062 148.75 C 141.035156 149.5 144.253906 149.589844 147.34375 149.035156 C 150.277344 148.484375 153.054688 147.359375 155.679688 145.617188 L 159.050781 143.386719 C 169.855469 136.878906 178.457031 136.789062 184.410156 139.96875 C 188.820312 142.308594 191.796875 146.476562 193.140625 151.132812 C 194.421875 155.746094 194.132812 160.820312 191.90625 164.945312 C 188.929688 170.460938 182.667969 174.324219 172.457031 173.59375 C 163.816406 172.953125 160.242188 171.652344 157.664062 170.726562 C 156.980469 170.484375 156.382812 170.242188 155.722656 170.042969 C 155.722656 170.042969 154.066406 169.621094 153.5625 169.558594 C 152.988281 169.492188 151.355469 169.492188 151.355469 169.492188 C 147.9375 169.578125 142.667969 170.726562 131.953125 173.816406 C 129.769531 174.453125 127.542969 174.5 125.359375 174.015625 C 123.21875 173.574219 121.191406 172.578125 119.449219 171.078125 C 117.464844 169.335938 116.074219 167.109375 115.390625 164.613281 C 114.707031 162.1875 114.640625 159.539062 115.433594 157.023438 C 116.183594 154.488281 117.664062 152.300781 119.601562 150.667969 L 119.800781 150.515625 L 119.050781 147.292969 C 118.566406 147.648438 118.101562 147.976562 117.664062 148.375 C 115.28125 150.359375 113.496094 153.03125 112.546875 156.121094 C 111.597656 159.253906 111.597656 162.472656 112.457031 165.453125 C 113.296875 168.429688 115.039062 171.210938 117.464844 173.351562 C 119.601562 175.183594 122.074219 176.375 124.71875 176.96875 C 127.34375 177.566406 130.121094 177.457031 132.8125 176.726562 C 150.9375 171.453125 152.457031 172.070312 156.625 173.550781 C 159.40625 174.542969 163.21875 175.933594 172.261719 176.640625 C 183.835938 177.476562 191.113281 172.867188 194.554688 166.421875 C 197.15625 161.546875 197.550781 155.679688 196.007812 150.339844 Z M 196.007812 150.339844 " fill-opacity="1" fill-rule="nonzero"/></g><path fill="#17506f" d="M 155.414062 133.195312 C 156.691406 131.449219 157.949219 130.214844 160.023438 129.707031 C 157.882812 129.621094 155.855469 130.503906 154.507812 132.15625 C 152.523438 131.605469 150.386719 132.113281 148.84375 133.503906 C 151.023438 132.621094 153.5625 132.90625 155.5 134.296875 Z M 155.414062 133.195312 " fill-opacity="1" fill-rule="evenodd"/><path fill="#17506f" d="M 166.59375 124.414062 C 167.871094 122.734375 169.128906 121.433594 171.203125 120.925781 C 169.128906 120.839844 167.078125 121.71875 165.734375 123.398438 C 163.75 122.847656 161.609375 123.351562 160.066406 124.675781 C 162.25 123.839844 164.71875 124.125 166.660156 125.515625 Z M 166.59375 124.414062 " fill-opacity="1" fill-rule="evenodd"/><path fill="#17506f" d="M 160.132812 117.507812 C 161.410156 115.828125 162.667969 114.527344 164.742188 114.019531 C 162.601562 113.933594 160.574219 114.8125 159.273438 116.492188 C 157.222656 115.941406 155.105469 116.445312 153.5625 117.769531 C 155.789062 116.933594 158.28125 117.21875 160.21875 118.566406 Z M 160.132812 117.507812 " fill-opacity="1" fill-rule="evenodd"/><path fill="#17506f" d="M 166.484375 118.5 C 167.035156 117.75 167.5625 117.152344 168.535156 116.953125 C 167.585938 116.910156 166.703125 117.308594 166.109375 118.035156 C 165.226562 117.792969 164.277344 118.035156 163.570312 118.632812 C 164.519531 118.234375 165.644531 118.390625 166.503906 118.984375 L 166.503906 118.5 Z M 166.484375 118.5 " fill-opacity="1" fill-rule="evenodd"/><path fill="#17506f" d="M 159.890625 127.347656 C 160.484375 126.597656 161.035156 126 161.960938 125.800781 C 161.015625 125.757812 160.132812 126.15625 159.535156 126.882812 C 158.65625 126.640625 157.664062 126.839844 156.957031 127.480469 C 157.949219 127.082031 159.09375 127.238281 159.933594 127.832031 Z M 159.890625 127.347656 " fill-opacity="1" fill-rule="evenodd"/><g fill="#167cc4" fill-opacity="1"><g transform="translate(196.958776, 128.344976)"><g><path d="M 15.328125 -8.398438 C 15.328125 -10.089844 15.328125 -11.78125 15.328125 -13.472656 C 15.328125 -14.417969 15.394531 -15.394531 15.328125 -16.339844 C 15.296875 -17.28125 15.296875 -18.195312 15.265625 -19.136719 C 15.265625 -20.277344 15.265625 -21.449219 15.230469 -22.585938 C 15.230469 -22.683594 15.230469 -22.78125 15.199219 -22.878906 C 15.167969 -23.109375 15.070312 -23.171875 14.839844 -23.140625 C 14.515625 -23.140625 14.191406 -23.140625 13.863281 -23.140625 C 13.214844 -23.140625 12.53125 -23.140625 11.878906 -23.140625 C 11.683594 -23.140625 11.554688 -23.042969 11.488281 -22.878906 C 11.359375 -22.585938 11.261719 -22.261719 11.261719 -21.9375 C 11.261719 -21.578125 11.230469 -21.222656 11.230469 -20.863281 C 11.230469 -18.878906 11.230469 -16.890625 11.195312 -14.90625 C 11.195312 -14.613281 11.195312 -14.613281 10.902344 -14.613281 C 10.316406 -14.613281 9.730469 -14.613281 9.144531 -14.582031 C 8.625 -14.546875 8.136719 -14.484375 7.617188 -14.449219 C 7.03125 -14.449219 6.476562 -14.484375 5.921875 -14.515625 C 5.792969 -14.515625 5.695312 -14.546875 5.726562 -14.679688 C 5.726562 -14.742188 5.726562 -14.808594 5.726562 -14.875 C 5.726562 -15.816406 5.726562 -16.761719 5.726562 -17.707031 C 5.761719 -19.234375 5.695312 -20.796875 5.664062 -22.328125 C 5.628906 -22.457031 5.628906 -22.621094 5.566406 -22.71875 C 5.402344 -22.945312 5.175781 -23.140625 4.882812 -23.109375 C 4.785156 -23.109375 4.6875 -23.109375 4.589844 -23.109375 C 4.132812 -23.109375 3.679688 -23.074219 3.222656 -23.074219 C 2.800781 -23.074219 2.410156 -23.074219 1.984375 -23.042969 C 1.726562 -23.042969 1.59375 -22.914062 1.5625 -22.621094 C 1.53125 -22.457031 1.53125 -22.292969 1.53125 -22.132812 C 1.496094 -21.707031 1.53125 -21.285156 1.464844 -20.894531 C 1.367188 -19.855469 1.335938 -18.78125 1.398438 -17.738281 C 1.496094 -16.535156 1.53125 -15.296875 1.496094 -14.058594 C 1.496094 -13.214844 1.464844 -12.402344 1.433594 -11.554688 C 1.398438 -10.773438 1.398438 -9.960938 1.398438 -9.179688 C 1.367188 -8.300781 1.335938 -7.453125 1.300781 -6.574219 C 1.300781 -4.71875 1.300781 -2.832031 1.300781 -0.976562 C 1.300781 -0.75 1.300781 -0.488281 1.335938 -0.261719 C 1.367188 0.0976562 1.59375 0.324219 1.953125 0.359375 C 2.019531 0.359375 2.050781 0.359375 2.082031 0.359375 C 3.125 0.324219 4.199219 0.324219 5.238281 0.292969 C 5.273438 0.292969 5.304688 0.292969 5.304688 0.292969 C 5.433594 0.324219 5.5 0.261719 5.53125 0.128906 C 5.566406 -0.03125 5.597656 -0.195312 5.597656 -0.359375 C 5.628906 -0.976562 5.628906 -1.628906 5.628906 -2.277344 C 5.628906 -3.449219 5.664062 -4.621094 5.664062 -5.824219 C 5.695312 -7.226562 5.695312 -8.65625 5.726562 -10.058594 C 5.726562 -10.253906 5.761719 -10.285156 5.957031 -10.253906 C 6.28125 -10.253906 6.605469 -10.253906 6.933594 -10.253906 C 7.421875 -10.285156 7.910156 -10.316406 8.398438 -10.351562 C 8.527344 -10.382812 8.65625 -10.382812 8.789062 -10.382812 C 9.503906 -10.480469 10.253906 -10.449219 11 -10.449219 C 11.132812 -10.449219 11.195312 -10.414062 11.195312 -10.285156 C 11.195312 -10.21875 11.195312 -10.1875 11.195312 -10.121094 C 11.164062 -9.046875 11.132812 -7.941406 11.132812 -6.867188 C 11.132812 -5.597656 11.164062 -4.328125 11.164062 -3.058594 C 11.164062 -2.246094 11.164062 -1.398438 11.132812 -0.585938 C 11.132812 -0.261719 11.261719 0 11.585938 0.0976562 C 11.816406 0.195312 12.042969 0.261719 12.304688 0.292969 C 13.082031 0.359375 13.863281 0.324219 14.613281 0.195312 C 15.070312 0.128906 15.265625 -0.164062 15.265625 -0.585938 C 15.265625 -0.683594 15.265625 -0.78125 15.265625 -0.910156 C 15.296875 -2.179688 15.328125 -3.449219 15.363281 -4.71875 C 15.363281 -5.921875 15.328125 -7.160156 15.328125 -8.398438 Z M 15.328125 -8.398438 "/></g></g></g><g fill="#167cc4" fill-opacity="1"><g transform="translate(213.618573, 128.344976)"><g><path d="M 17.152344 -12.109375 C 17.183594 -13.3125 17.023438 -14.484375 16.792969 -15.65625 C 16.664062 -16.371094 16.5 -17.085938 16.339844 -17.804688 C 16.109375 -18.976562 15.558594 -19.984375 14.839844 -20.929688 C 14.515625 -21.351562 14.15625 -21.773438 13.667969 -22.097656 C 13.148438 -22.425781 12.5625 -22.683594 11.976562 -22.976562 C 11.976562 -22.976562 11.945312 -22.976562 11.945312 -23.011719 C 11.523438 -23.109375 11.132812 -23.207031 10.707031 -23.269531 C 10.058594 -23.335938 9.40625 -23.304688 8.753906 -23.304688 C 8.300781 -23.269531 7.8125 -23.238281 7.355469 -23.074219 C 6.671875 -22.847656 5.988281 -22.585938 5.402344 -22.132812 C 4.945312 -21.773438 4.425781 -21.449219 4.035156 -20.992188 C 3.582031 -20.441406 3.222656 -19.855469 2.863281 -19.234375 C 2.636719 -18.78125 2.507812 -18.292969 2.34375 -17.835938 C 1.953125 -16.664062 1.726562 -15.492188 1.59375 -14.289062 C 1.53125 -13.765625 1.496094 -13.246094 1.464844 -12.757812 C 1.433594 -12.074219 1.367188 -11.390625 1.335938 -10.707031 C 1.300781 -9.960938 1.335938 -9.210938 1.496094 -8.460938 C 1.496094 -8.332031 1.53125 -8.203125 1.53125 -8.070312 C 1.59375 -7.582031 1.628906 -7.128906 1.660156 -6.640625 C 1.757812 -5.957031 1.953125 -5.335938 2.179688 -4.71875 C 2.605469 -3.515625 3.253906 -2.410156 4.101562 -1.464844 C 4.230469 -1.335938 4.394531 -1.203125 4.523438 -1.074219 C 4.6875 -0.976562 4.816406 -0.847656 4.945312 -0.75 C 5.402344 -0.390625 5.890625 -0.128906 6.410156 0 C 7.257812 0.261719 8.136719 0.359375 9.015625 0.390625 C 9.765625 0.390625 10.511719 0.390625 11.195312 0.03125 C 11.457031 -0.0664062 11.683594 -0.164062 11.945312 -0.261719 C 12.074219 -0.324219 12.207031 -0.421875 12.335938 -0.519531 C 12.5 -0.652344 12.660156 -0.78125 12.824219 -0.878906 C 13.375 -1.269531 13.898438 -1.660156 14.253906 -2.246094 C 14.546875 -2.703125 14.875 -3.15625 15.101562 -3.644531 C 15.523438 -4.457031 15.882812 -5.273438 16.144531 -6.152344 C 16.5 -7.257812 16.828125 -8.363281 16.957031 -9.535156 C 16.988281 -9.828125 16.957031 -10.121094 17.054688 -10.414062 C 17.152344 -10.742188 17.121094 -11.097656 17.152344 -11.425781 C 17.152344 -11.652344 17.152344 -11.878906 17.152344 -12.109375 Z M 5.597656 -11.132812 C 5.53125 -12.171875 5.597656 -13.179688 5.824219 -14.191406 C 6.117188 -15.425781 6.605469 -16.597656 7.421875 -17.609375 C 7.875 -18.128906 8.496094 -18.453125 9.179688 -18.453125 C 9.863281 -18.488281 10.480469 -18.257812 11 -17.867188 C 11.066406 -17.804688 11.132812 -17.769531 11.164062 -17.671875 C 11.523438 -17.152344 11.816406 -16.566406 12.011719 -15.949219 C 12.269531 -15.003906 12.464844 -14.027344 12.5625 -13.082031 C 12.597656 -12.238281 12.5625 -11.425781 12.53125 -10.609375 C 12.53125 -10.089844 12.5 -9.570312 12.402344 -9.082031 C 12.238281 -7.972656 12.011719 -6.867188 11.621094 -5.792969 C 11.457031 -5.335938 11.195312 -4.945312 10.773438 -4.75 C 10.253906 -4.457031 9.667969 -4.261719 9.046875 -4.394531 C 8.691406 -4.457031 8.332031 -4.523438 7.972656 -4.621094 C 7.257812 -4.816406 6.800781 -5.273438 6.445312 -5.890625 C 6.085938 -6.640625 5.921875 -7.386719 5.792969 -8.167969 C 5.628906 -9.179688 5.53125 -10.15625 5.597656 -11.132812 Z M 5.597656 -11.132812 "/></g></g></g><g fill="#167cc4" fill-opacity="1"><g transform="translate(232.100535, 128.344976)"><g><path d="M 1.367188 -8.917969 C 1.367188 -7.324219 1.335938 -5.695312 1.367188 -4.101562 C 1.367188 -2.863281 1.398438 -1.628906 1.433594 -0.421875 C 1.464844 0.164062 1.628906 0.292969 2.179688 0.292969 C 2.929688 0.261719 3.679688 0.128906 4.425781 0.164062 C 4.847656 0.164062 5.238281 0.128906 5.664062 0.128906 C 6.410156 0.164062 7.160156 0.195312 7.910156 0.226562 C 8.984375 0.261719 10.058594 0.226562 11.097656 0.164062 C 11.292969 0.128906 11.523438 0.0976562 11.683594 0.03125 C 11.976562 -0.03125 12.042969 -0.128906 12.074219 -0.421875 C 12.074219 -0.488281 12.074219 -0.519531 12.074219 -0.617188 C 12.109375 -1.171875 12.109375 -1.726562 12.140625 -2.3125 C 12.171875 -2.703125 12.171875 -3.058594 12.171875 -3.449219 C 12.171875 -3.742188 12.011719 -4.003906 11.816406 -4.070312 C 11.621094 -4.101562 11.457031 -4.132812 11.261719 -4.132812 C 10.839844 -4.167969 10.382812 -4.167969 9.925781 -4.199219 C 8.722656 -4.230469 7.519531 -4.394531 6.3125 -4.394531 C 6.183594 -4.394531 6.085938 -4.394531 5.957031 -4.394531 C 5.824219 -4.394531 5.792969 -4.425781 5.792969 -4.554688 C 5.792969 -5.109375 5.824219 -5.695312 5.824219 -6.28125 C 5.792969 -8.070312 5.792969 -9.894531 5.761719 -11.683594 C 5.726562 -12.5625 5.664062 -13.472656 5.695312 -14.351562 C 5.726562 -16.792969 5.628906 -19.203125 5.53125 -21.644531 C 5.53125 -22 5.53125 -22.359375 5.53125 -22.71875 C 5.53125 -22.914062 5.402344 -23.074219 5.175781 -23.074219 C 5.042969 -23.109375 4.914062 -23.109375 4.75 -23.109375 C 3.875 -23.074219 2.996094 -23.074219 2.082031 -23.042969 C 1.660156 -23.042969 1.464844 -23.011719 1.433594 -22.390625 C 1.398438 -21.839844 1.398438 -21.316406 1.398438 -20.734375 C 1.367188 -20.40625 1.367188 -20.082031 1.335938 -19.757812 C 1.335938 -19.203125 1.300781 -18.648438 1.300781 -18.128906 C 1.300781 -17.347656 1.335938 -16.566406 1.367188 -15.785156 C 1.367188 -13.507812 1.367188 -11.195312 1.367188 -8.917969 Z M 1.367188 -8.917969 "/></g></g></g><g fill="#167cc4" fill-opacity="1"><g transform="translate(245.571539, 128.344976)"><g><path d="M 5.402344 -20.308594 C 5.371094 -20.308594 5.371094 -20.308594 5.371094 -20.308594 C 5.371094 -21.089844 5.371094 -21.902344 5.371094 -22.683594 C 5.371094 -23.074219 5.207031 -23.207031 4.816406 -23.171875 C 4.554688 -23.140625 4.296875 -23.140625 4.070312 -23.140625 C 3.613281 -23.140625 3.125 -23.140625 2.667969 -23.140625 C 2.375 -23.140625 2.117188 -23.109375 1.824219 -23.074219 C 1.5625 -23.042969 1.433594 -22.914062 1.398438 -22.652344 C 1.367188 -22.261719 1.335938 -21.871094 1.335938 -21.480469 C 1.335938 -20.863281 1.367188 -20.246094 1.367188 -19.625 C 1.367188 -18.78125 1.367188 -17.902344 1.367188 -17.023438 C 1.367188 -16.664062 1.398438 -16.304688 1.398438 -15.949219 C 1.398438 -14.15625 1.433594 -12.367188 1.398438 -10.578125 C 1.398438 -9.277344 1.398438 -7.941406 1.335938 -6.605469 C 1.300781 -5.273438 1.300781 -3.90625 1.335938 -2.539062 C 1.367188 -1.886719 1.335938 -1.203125 1.335938 -0.554688 C 1.335938 -0.359375 1.300781 -0.195312 1.300781 0 C 1.300781 0.261719 1.398438 0.324219 1.660156 0.359375 C 1.726562 0.359375 1.789062 0.359375 1.855469 0.359375 C 2.832031 0.359375 3.808594 0.359375 4.785156 0.324219 C 4.945312 0.324219 5.140625 0.226562 5.207031 0 C 5.207031 -0.0664062 5.238281 -0.164062 5.238281 -0.261719 C 5.273438 -1.335938 5.304688 -2.441406 5.335938 -3.546875 C 5.335938 -3.808594 5.371094 -4.101562 5.371094 -4.359375 C 5.402344 -4.847656 5.433594 -5.335938 5.433594 -5.824219 C 5.46875 -7.03125 5.46875 -8.234375 5.46875 -9.40625 C 5.46875 -9.828125 5.433594 -10.253906 5.433594 -10.675781 C 5.402344 -11.261719 5.371094 -11.878906 5.371094 -12.464844 C 5.371094 -13.050781 5.402344 -13.636719 5.402344 -14.191406 C 5.402344 -15.230469 5.371094 -16.242188 5.371094 -17.25 C 5.371094 -17.476562 5.402344 -17.707031 5.402344 -17.964844 C 5.402344 -18.746094 5.402344 -19.527344 5.402344 -20.308594 Z M 5.402344 -20.308594 "/></g></g></g><g fill="#167cc4" fill-opacity="1"><g transform="translate(252.339579, 128.344976)"><g><path d="M 6.671875 0.128906 C 6.898438 0.128906 7.128906 0.0976562 7.355469 0.128906 C 8.234375 0.164062 9.082031 0.128906 9.925781 -0.03125 C 10.382812 -0.0976562 10.804688 -0.195312 11.195312 -0.390625 C 11.261719 -0.457031 11.359375 -0.457031 11.425781 -0.488281 C 12.335938 -0.910156 13.148438 -1.53125 13.898438 -2.214844 C 14.125 -2.410156 14.289062 -2.703125 14.484375 -2.929688 C 14.90625 -3.386719 15.199219 -3.90625 15.460938 -4.457031 C 15.753906 -5.109375 15.980469 -5.792969 16.175781 -6.476562 C 16.339844 -7.03125 16.4375 -7.617188 16.566406 -8.203125 C 16.792969 -9.210938 16.890625 -10.253906 16.890625 -11.292969 C 16.890625 -11.976562 16.828125 -12.695312 16.792969 -13.375 C 16.761719 -13.996094 16.730469 -14.582031 16.597656 -15.167969 C 16.535156 -15.621094 16.46875 -16.078125 16.4375 -16.535156 C 16.402344 -17.21875 16.207031 -17.835938 15.949219 -18.453125 C 15.589844 -19.171875 15.132812 -19.820312 14.679688 -20.441406 C 14.320312 -20.894531 13.929688 -21.285156 13.441406 -21.546875 C 13.277344 -21.644531 13.117188 -21.742188 12.984375 -21.839844 C 12.5 -22.261719 11.945312 -22.554688 11.425781 -22.878906 C 10.902344 -23.171875 10.382812 -23.304688 9.796875 -23.238281 C 9.40625 -23.171875 9.015625 -23.140625 8.625 -23.207031 C 8.496094 -23.238281 8.398438 -23.238281 8.265625 -23.238281 C 7.386719 -23.207031 6.507812 -23.171875 5.628906 -23.171875 C 4.816406 -23.171875 4.035156 -23.207031 3.253906 -23.207031 C 2.863281 -23.207031 2.472656 -23.140625 2.082031 -23.074219 C 1.789062 -23.042969 1.59375 -22.847656 1.5625 -22.554688 C 1.53125 -22.261719 1.496094 -21.96875 1.496094 -21.675781 C 1.496094 -21.316406 1.496094 -20.960938 1.464844 -20.601562 C 1.398438 -20.40625 1.433594 -20.179688 1.433594 -19.984375 C 1.433594 -19.496094 1.496094 -19.007812 1.496094 -18.488281 C 1.496094 -17.902344 1.433594 -17.28125 1.433594 -16.664062 C 1.335938 -14.351562 1.300781 -12.011719 1.367188 -9.699219 C 1.398438 -8.691406 1.398438 -7.679688 1.433594 -6.671875 C 1.464844 -5.433594 1.496094 -4.230469 1.5625 -3.027344 C 1.59375 -2.148438 1.660156 -1.300781 1.726562 -0.457031 C 1.757812 -0.195312 1.921875 0 2.179688 0.03125 C 2.34375 0.0664062 2.507812 0.0664062 2.667969 0.0664062 C 3.09375 0.0664062 3.546875 0.0664062 3.9375 0.0664062 C 4.359375 0.0976562 4.75 0.128906 5.175781 0.128906 C 5.664062 0.128906 6.183594 0.128906 6.671875 0.128906 Z M 6.476562 -11.292969 C 6.476562 -11.976562 6.476562 -12.628906 6.476562 -13.3125 C 6.445312 -14.679688 6.410156 -16.078125 6.378906 -17.445312 C 6.378906 -17.511719 6.378906 -17.574219 6.410156 -17.640625 C 6.410156 -17.671875 6.476562 -17.738281 6.507812 -17.769531 C 6.640625 -17.804688 6.769531 -17.804688 6.898438 -17.804688 C 7.289062 -17.835938 7.679688 -17.835938 8.070312 -17.835938 C 8.558594 -17.835938 9.015625 -17.738281 9.375 -17.347656 C 9.503906 -17.25 9.632812 -17.152344 9.765625 -17.085938 C 10.316406 -16.761719 10.675781 -16.242188 10.871094 -15.65625 C 11.132812 -14.90625 11.359375 -14.15625 11.523438 -13.375 C 11.75 -12.53125 11.847656 -11.683594 11.816406 -10.839844 C 11.816406 -10.578125 11.816406 -10.285156 11.847656 -10.023438 C 11.847656 -9.570312 11.816406 -9.179688 11.71875 -8.753906 C 11.523438 -8.136719 11.390625 -7.550781 11.132812 -6.996094 C 10.773438 -6.347656 10.285156 -5.824219 9.632812 -5.46875 C 9.082031 -5.207031 8.496094 -5.109375 7.910156 -5.011719 C 7.519531 -4.980469 7.128906 -4.914062 6.738281 -4.882812 C 6.476562 -4.882812 6.445312 -4.914062 6.445312 -5.175781 C 6.445312 -6.25 6.445312 -7.355469 6.445312 -8.460938 C 6.445312 -9.40625 6.476562 -10.351562 6.476562 -11.292969 Z M 6.476562 -11.292969 "/></g></g></g><g fill="#167cc4" fill-opacity="1"><g transform="translate(269.87792, 128.344976)"><g><path d="M 5.402344 -20.308594 C 5.371094 -20.308594 5.371094 -20.308594 5.371094 -20.308594 C 5.371094 -21.089844 5.371094 -21.902344 5.371094 -22.683594 C 5.371094 -23.074219 5.207031 -23.207031 4.816406 -23.171875 C 4.554688 -23.140625 4.296875 -23.140625 4.070312 -23.140625 C 3.613281 -23.140625 3.125 -23.140625 2.667969 -23.140625 C 2.375 -23.140625 2.117188 -23.109375 1.824219 -23.074219 C 1.5625 -23.042969 1.433594 -22.914062 1.398438 -22.652344 C 1.367188 -22.261719 1.335938 -21.871094 1.335938 -21.480469 C 1.335938 -20.863281 1.367188 -20.246094 1.367188 -19.625 C 1.367188 -18.78125 1.367188 -17.902344 1.367188 -17.023438 C 1.367188 -16.664062 1.398438 -16.304688 1.398438 -15.949219 C 1.398438 -14.15625 1.433594 -12.367188 1.398438 -10.578125 C 1.398438 -9.277344 1.398438 -7.941406 1.335938 -6.605469 C 1.300781 -5.273438 1.300781 -3.90625 1.335938 -2.539062 C 1.367188 -1.886719 1.335938 -1.203125 1.335938 -0.554688 C 1.335938 -0.359375 1.300781 -0.195312 1.300781 0 C 1.300781 0.261719 1.398438 0.324219 1.660156 0.359375 C 1.726562 0.359375 1.789062 0.359375 1.855469 0.359375 C 2.832031 0.359375 3.808594 0.359375 4.785156 0.324219 C 4.945312 0.324219 5.140625 0.226562 5.207031 0 C 5.207031 -0.0664062 5.238281 -0.164062 5.238281 -0.261719 C 5.273438 -1.335938 5.304688 -2.441406 5.335938 -3.546875 C 5.335938 -3.808594 5.371094 -4.101562 5.371094 -4.359375 C 5.402344 -4.847656 5.433594 -5.335938 5.433594 -5.824219 C 5.46875 -7.03125 5.46875 -8.234375 5.46875 -9.40625 C 5.46875 -9.828125 5.433594 -10.253906 5.433594 -10.675781 C 5.402344 -11.261719 5.371094 -11.878906 5.371094 -12.464844 C 5.371094 -13.050781 5.402344 -13.636719 5.402344 -14.191406 C 5.402344 -15.230469 5.371094 -16.242188 5.371094 -17.25 C 5.371094 -17.476562 5.402344 -17.707031 5.402344 -17.964844 C 5.402344 -18.746094 5.402344 -19.527344 5.402344 -20.308594 Z M 5.402344 -20.308594 "/></g></g></g><g fill="#167cc4" fill-opacity="1"><g transform="translate(276.645961, 128.344976)"><g><path d="M 1.367188 -11.230469 C 1.367188 -9.796875 1.367188 -8.332031 1.335938 -6.898438 C 1.335938 -6.25 1.335938 -5.597656 1.335938 -4.914062 C 1.335938 -3.417969 1.335938 -1.886719 1.367188 -0.359375 C 1.367188 0.03125 1.367188 0.0664062 1.789062 0.128906 C 1.855469 0.128906 1.921875 0.128906 1.984375 0.128906 C 2.34375 0.128906 2.703125 0.0976562 3.027344 0.128906 C 3.777344 0.195312 4.523438 0.195312 5.273438 0.195312 C 5.402344 0.195312 5.5 0.164062 5.597656 0.164062 C 5.890625 0.0976562 6.019531 -0.0664062 6.054688 -0.359375 C 6.054688 -1.042969 6.085938 -1.757812 6.085938 -2.441406 C 6.054688 -4.003906 6.019531 -5.566406 6.019531 -7.128906 C 6.019531 -8.039062 6.054688 -8.949219 6.085938 -9.863281 C 6.085938 -9.992188 6.117188 -10.058594 6.25 -10.058594 C 6.542969 -10.058594 6.835938 -10.089844 7.128906 -10.089844 C 8.070312 -10.121094 8.984375 -10.121094 9.894531 -10.058594 C 10.511719 -10.023438 11.164062 -10.058594 11.78125 -10.089844 C 11.976562 -10.121094 12.042969 -10.1875 12.042969 -10.414062 C 12.042969 -10.675781 12.074219 -10.9375 12.074219 -11.195312 C 12.074219 -11.914062 12.074219 -12.597656 12.042969 -13.277344 C 12.042969 -13.441406 11.976562 -13.605469 11.914062 -13.734375 C 11.78125 -13.996094 11.554688 -14.058594 11.292969 -14.09375 C 10.382812 -14.09375 9.472656 -14.125 8.59375 -14.125 C 8.527344 -14.125 8.460938 -14.125 8.398438 -14.125 C 7.777344 -14.09375 7.128906 -14.058594 6.476562 -14.027344 C 6.3125 -14.027344 6.28125 -14.058594 6.28125 -14.253906 C 6.28125 -14.515625 6.3125 -14.777344 6.28125 -15.035156 C 6.28125 -16.078125 6.25 -17.085938 6.25 -18.128906 C 6.25 -18.355469 6.25 -18.355469 6.476562 -18.390625 C 6.933594 -18.421875 7.386719 -18.453125 7.84375 -18.488281 C 8.363281 -18.488281 8.917969 -18.550781 9.4375 -18.550781 C 10.121094 -18.585938 10.773438 -18.585938 11.457031 -18.585938 C 11.78125 -18.585938 12.140625 -18.585938 12.464844 -18.617188 C 12.984375 -18.683594 13.214844 -18.8125 13.277344 -19.367188 C 13.410156 -20.34375 13.410156 -21.316406 13.375 -22.292969 C 13.375 -22.390625 13.375 -22.457031 13.34375 -22.523438 C 13.246094 -22.847656 13.117188 -23.109375 12.726562 -23.140625 C 12.367188 -23.207031 12.011719 -23.269531 11.652344 -23.269531 C 11.132812 -23.304688 10.609375 -23.269531 10.089844 -23.269531 C 8.398438 -23.269531 6.738281 -23.269531 5.042969 -23.269531 C 4.101562 -23.238281 3.125 -23.140625 2.179688 -23.011719 C 1.921875 -22.976562 1.691406 -22.878906 1.53125 -22.683594 C 1.433594 -22.621094 1.367188 -22.457031 1.367188 -22.359375 C 1.335938 -22.035156 1.300781 -21.707031 1.335938 -21.382812 C 1.335938 -19.367188 1.367188 -17.316406 1.367188 -15.265625 C 1.367188 -13.929688 1.367188 -12.597656 1.367188 -11.230469 Z M 1.367188 -11.230469 "/></g></g></g><g fill="#167cc4" fill-opacity="1"><g transform="translate(290.702666, 128.344976)"><g><path d="M 8.039062 -17.378906 C 7.941406 -17.542969 7.875 -17.671875 7.8125 -17.804688 C 7.617188 -18.160156 7.453125 -18.488281 7.289062 -18.8125 C 7.128906 -19.136719 6.933594 -19.496094 6.769531 -19.820312 C 6.703125 -19.984375 6.640625 -20.148438 6.542969 -20.277344 C 6.152344 -21.058594 5.761719 -21.804688 5.433594 -22.621094 C 5.402344 -22.71875 5.335938 -22.816406 5.304688 -22.914062 C 5.207031 -23.042969 5.109375 -23.140625 4.914062 -23.171875 C 4.492188 -23.207031 4.101562 -23.238281 3.679688 -23.207031 C 3.191406 -23.171875 2.734375 -23.207031 2.246094 -23.171875 C 1.824219 -23.140625 1.398438 -23.109375 0.976562 -23.042969 C 0.683594 -23.011719 0.617188 -22.847656 0.714844 -22.585938 C 0.910156 -22.164062 1.105469 -21.773438 1.335938 -21.351562 C 1.789062 -20.570312 2.214844 -19.722656 2.605469 -18.910156 C 3.027344 -18.03125 3.417969 -17.183594 3.90625 -16.371094 C 4.523438 -15.328125 5.140625 -14.253906 5.761719 -13.214844 C 6.085938 -12.695312 6.152344 -12.140625 6.117188 -11.554688 C 6.054688 -10.21875 6.085938 -8.886719 6.117188 -7.582031 C 6.152344 -6.605469 6.183594 -5.664062 6.214844 -4.71875 C 6.214844 -3.320312 6.214844 -1.886719 6.214844 -0.488281 C 6.214844 -0.0976562 6.476562 0.164062 6.898438 0.164062 C 7.875 0.195312 8.851562 0.128906 9.828125 0.03125 C 10.15625 0 10.382812 -0.226562 10.382812 -0.554688 C 10.414062 -1.496094 10.414062 -2.410156 10.414062 -3.320312 C 10.414062 -5.042969 10.414062 -6.769531 10.414062 -8.496094 C 10.414062 -8.949219 10.414062 -9.375 10.382812 -9.796875 C 10.382812 -10.121094 10.382812 -10.449219 10.382812 -10.773438 C 10.382812 -11.066406 10.382812 -11.359375 10.382812 -11.652344 C 10.382812 -12.011719 10.414062 -12.402344 10.546875 -12.757812 C 10.675781 -13.179688 10.804688 -13.605469 11 -14.027344 C 11.425781 -15.003906 11.878906 -15.949219 12.335938 -16.925781 C 12.628906 -17.476562 12.921875 -18.03125 13.214844 -18.617188 C 13.636719 -19.429688 14.058594 -20.246094 14.484375 -21.058594 C 14.613281 -21.285156 14.710938 -21.511719 14.839844 -21.773438 C 14.9375 -22 15.035156 -22.261719 15.167969 -22.488281 C 15.230469 -22.652344 15.363281 -22.78125 15.265625 -22.945312 C 15.167969 -23.171875 14.972656 -23.109375 14.777344 -23.109375 C 14.320312 -23.074219 13.898438 -23.042969 13.441406 -23.042969 C 12.695312 -23.011719 11.976562 -22.976562 11.230469 -22.945312 C 11.097656 -22.945312 11 -22.914062 10.9375 -22.78125 C 10.839844 -22.621094 10.707031 -22.425781 10.644531 -22.261719 C 10.21875 -21.351562 9.796875 -20.472656 9.277344 -19.625 C 8.851562 -18.941406 8.460938 -18.257812 8.136719 -17.511719 C 8.105469 -17.476562 8.070312 -17.445312 8.039062 -17.378906 Z M 8.039062 -17.378906 "/></g></g></g><g fill="#167cc4" fill-opacity="1"><g transform="translate(209.341251, 162.201329)"><g><path d="M 17.734375 -4.0625 C 17.890625 -4.0625 18.007812 -3.988281 18.09375 -3.84375 C 18.1875 -3.695312 18.234375 -3.492188 18.234375 -3.234375 C 18.234375 -2.765625 18.117188 -2.390625 17.890625 -2.109375 C 16.691406 -0.640625 15.410156 0.09375 14.046875 0.09375 C 12.867188 0.09375 11.925781 -0.359375 11.21875 -1.265625 C 10.519531 -2.179688 10.171875 -3.488281 10.171875 -5.1875 C 10.171875 -5.601562 10.191406 -6.015625 10.234375 -6.421875 C 9.429688 -6.273438 8.554688 -6.164062 7.609375 -6.09375 C 6.972656 -6.050781 6.539062 -6.019531 6.3125 -6 C 6.070312 -4.769531 5.734375 -3.253906 5.296875 -1.453125 C 5.046875 -0.398438 4.5625 0.125 3.84375 0.125 C 3.0625 0.125 2.671875 -0.222656 2.671875 -0.921875 C 2.671875 -1.085938 2.703125 -1.304688 2.765625 -1.578125 C 3.179688 -3.242188 3.507812 -4.65625 3.75 -5.8125 L 2.875 -5.765625 C 2.476562 -5.765625 2.1875 -5.832031 2 -5.96875 C 1.820312 -6.113281 1.734375 -6.34375 1.734375 -6.65625 C 1.734375 -7.0625 1.847656 -7.359375 2.078125 -7.546875 C 2.304688 -7.734375 2.6875 -7.835938 3.21875 -7.859375 L 4.1875 -7.90625 C 4.5 -9.613281 4.65625 -10.914062 4.65625 -11.8125 C 4.65625 -12.382812 4.570312 -12.769531 4.40625 -12.96875 C 4.238281 -13.175781 4.015625 -13.28125 3.734375 -13.28125 C 2.878906 -13.28125 1.921875 -12.570312 0.859375 -11.15625 C 0.703125 -10.945312 0.523438 -10.84375 0.328125 -10.84375 C 0.160156 -10.84375 0.015625 -10.921875 -0.109375 -11.078125 C -0.234375 -11.242188 -0.296875 -11.445312 -0.296875 -11.6875 C -0.296875 -12.0625 -0.144531 -12.460938 0.15625 -12.890625 C 0.695312 -13.628906 1.375 -14.238281 2.1875 -14.71875 C 3 -15.195312 3.820312 -15.4375 4.65625 -15.4375 C 5.445312 -15.4375 6.054688 -15.164062 6.484375 -14.625 C 6.921875 -14.082031 7.140625 -13.242188 7.140625 -12.109375 C 7.140625 -11.097656 6.992188 -9.734375 6.703125 -8.015625 L 8.484375 -8.09375 C 9.242188 -8.132812 9.898438 -8.195312 10.453125 -8.28125 C 10.671875 -9.613281 11.003906 -10.863281 11.453125 -12.03125 C 11.898438 -13.195312 12.457031 -14.144531 13.125 -14.875 C 13.789062 -15.601562 14.535156 -15.96875 15.359375 -15.96875 C 15.972656 -15.96875 16.453125 -15.726562 16.796875 -15.25 C 17.148438 -14.769531 17.328125 -14.140625 17.328125 -13.359375 C 17.328125 -10.347656 15.789062 -8.257812 12.71875 -7.09375 C 12.6875 -6.613281 12.671875 -6.113281 12.671875 -5.59375 C 12.671875 -4.3125 12.828125 -3.40625 13.140625 -2.875 C 13.453125 -2.34375 13.894531 -2.078125 14.46875 -2.078125 C 14.96875 -2.078125 15.421875 -2.207031 15.828125 -2.46875 C 16.242188 -2.726562 16.710938 -3.171875 17.234375 -3.796875 C 17.378906 -3.972656 17.546875 -4.0625 17.734375 -4.0625 Z M 15.265625 -14.375 C 15.003906 -14.375 14.722656 -14.128906 14.421875 -13.640625 C 14.128906 -13.160156 13.847656 -12.5 13.578125 -11.65625 C 13.304688 -10.820312 13.09375 -9.910156 12.9375 -8.921875 C 13.914062 -9.316406 14.632812 -9.882812 15.09375 -10.625 C 15.550781 -11.363281 15.78125 -12.316406 15.78125 -13.484375 C 15.78125 -13.765625 15.726562 -13.984375 15.625 -14.140625 C 15.53125 -14.296875 15.410156 -14.375 15.265625 -14.375 Z M 15.265625 -14.375 "/></g></g></g><g fill="#167cc4" fill-opacity="1"><g transform="translate(225.229751, 162.201329)"><g><path d="M 10.15625 -5.59375 C 10.3125 -5.59375 10.429688 -5.507812 10.515625 -5.34375 C 10.609375 -5.1875 10.65625 -4.988281 10.65625 -4.75 C 10.65625 -4.164062 10.476562 -3.820312 10.125 -3.71875 C 9.394531 -3.457031 8.59375 -3.3125 7.71875 -3.28125 C 7.488281 -2.257812 7.03125 -1.441406 6.34375 -0.828125 C 5.664062 -0.210938 4.898438 0.09375 4.046875 0.09375 C 3.316406 0.09375 2.691406 -0.0820312 2.171875 -0.4375 C 1.660156 -0.789062 1.269531 -1.257812 1 -1.84375 C 0.726562 -2.425781 0.59375 -3.054688 0.59375 -3.734375 C 0.59375 -4.648438 0.769531 -5.46875 1.125 -6.1875 C 1.476562 -6.914062 1.960938 -7.484375 2.578125 -7.890625 C 3.203125 -8.296875 3.890625 -8.5 4.640625 -8.5 C 5.566406 -8.5 6.3125 -8.179688 6.875 -7.546875 C 7.4375 -6.910156 7.765625 -6.125 7.859375 -5.1875 C 8.429688 -5.226562 9.113281 -5.347656 9.90625 -5.546875 C 10 -5.578125 10.082031 -5.59375 10.15625 -5.59375 Z M 4.1875 -1.84375 C 4.570312 -1.84375 4.90625 -2 5.1875 -2.3125 C 5.476562 -2.625 5.671875 -3.078125 5.765625 -3.671875 C 5.390625 -3.929688 5.101562 -4.265625 4.90625 -4.671875 C 4.707031 -5.085938 4.609375 -5.523438 4.609375 -5.984375 C 4.609375 -6.179688 4.625 -6.378906 4.65625 -6.578125 L 4.5625 -6.578125 C 4.082031 -6.578125 3.679688 -6.34375 3.359375 -5.875 C 3.035156 -5.40625 2.875 -4.742188 2.875 -3.890625 C 2.875 -3.222656 3.003906 -2.710938 3.265625 -2.359375 C 3.523438 -2.015625 3.832031 -1.84375 4.1875 -1.84375 Z M 4.1875 -1.84375 "/></g></g></g><g fill="#167cc4" fill-opacity="1"><g transform="translate(233.437898, 162.201329)"><g><path d="M 7.765625 -4.0625 C 7.929688 -4.0625 8.054688 -3.988281 8.140625 -3.84375 C 8.234375 -3.695312 8.28125 -3.492188 8.28125 -3.234375 C 8.28125 -2.753906 8.164062 -2.378906 7.9375 -2.109375 C 7.414062 -1.460938 6.847656 -0.929688 6.234375 -0.515625 C 5.617188 -0.109375 4.925781 0.09375 4.15625 0.09375 C 3.082031 0.09375 2.285156 -0.390625 1.765625 -1.359375 C 1.253906 -2.335938 1 -3.597656 1 -5.140625 C 1 -6.617188 1.1875 -8.300781 1.5625 -10.1875 C 1.945312 -12.082031 2.515625 -13.707031 3.265625 -15.0625 C 4.015625 -16.425781 4.90625 -17.109375 5.9375 -17.109375 C 6.519531 -17.109375 6.976562 -16.835938 7.3125 -16.296875 C 7.644531 -15.753906 7.8125 -14.984375 7.8125 -13.984375 C 7.8125 -12.535156 7.410156 -10.859375 6.609375 -8.953125 C 5.804688 -7.046875 4.71875 -5.160156 3.34375 -3.296875 C 3.4375 -2.796875 3.578125 -2.4375 3.765625 -2.21875 C 3.960938 -2.007812 4.21875 -1.90625 4.53125 -1.90625 C 5.03125 -1.90625 5.46875 -2.046875 5.84375 -2.328125 C 6.21875 -2.617188 6.695312 -3.109375 7.28125 -3.796875 C 7.425781 -3.972656 7.585938 -4.0625 7.765625 -4.0625 Z M 5.53125 -15.3125 C 5.25 -15.3125 4.929688 -14.804688 4.578125 -13.796875 C 4.234375 -12.785156 3.925781 -11.535156 3.65625 -10.046875 C 3.394531 -8.554688 3.25 -7.125 3.21875 -5.75 C 4.082031 -7.164062 4.769531 -8.585938 5.28125 -10.015625 C 5.789062 -11.441406 6.046875 -12.742188 6.046875 -13.921875 C 6.046875 -14.847656 5.875 -15.3125 5.53125 -15.3125 Z M 5.53125 -15.3125 "/></g></g></g><g fill="#167cc4" fill-opacity="1"><g transform="translate(239.371068, 162.201329)"><g><path d="M 3.265625 -9.6875 C 2.753906 -9.6875 2.367188 -9.800781 2.109375 -10.03125 C 1.859375 -10.269531 1.734375 -10.601562 1.734375 -11.03125 C 1.734375 -11.457031 1.898438 -11.8125 2.234375 -12.09375 C 2.566406 -12.382812 2.984375 -12.53125 3.484375 -12.53125 C 3.929688 -12.53125 4.289062 -12.421875 4.5625 -12.203125 C 4.84375 -11.984375 4.984375 -11.671875 4.984375 -11.265625 C 4.984375 -10.785156 4.828125 -10.398438 4.515625 -10.109375 C 4.203125 -9.828125 3.785156 -9.6875 3.265625 -9.6875 Z M 3.109375 0.09375 C 2.316406 0.09375 1.742188 -0.179688 1.390625 -0.734375 C 1.035156 -1.296875 0.859375 -2.039062 0.859375 -2.96875 C 0.859375 -3.507812 0.925781 -4.207031 1.0625 -5.0625 C 1.207031 -5.925781 1.390625 -6.726562 1.609375 -7.46875 C 1.710938 -7.851562 1.851562 -8.117188 2.03125 -8.265625 C 2.21875 -8.410156 2.507812 -8.484375 2.90625 -8.484375 C 3.53125 -8.484375 3.84375 -8.273438 3.84375 -7.859375 C 3.84375 -7.554688 3.726562 -6.851562 3.5 -5.75 C 3.207031 -4.414062 3.0625 -3.515625 3.0625 -3.046875 C 3.0625 -2.679688 3.109375 -2.398438 3.203125 -2.203125 C 3.296875 -2.003906 3.457031 -1.90625 3.6875 -1.90625 C 3.90625 -1.90625 4.175781 -2.054688 4.5 -2.359375 C 4.832031 -2.671875 5.273438 -3.148438 5.828125 -3.796875 C 5.972656 -3.972656 6.132812 -4.0625 6.3125 -4.0625 C 6.46875 -4.0625 6.59375 -3.988281 6.6875 -3.84375 C 6.78125 -3.695312 6.828125 -3.492188 6.828125 -3.234375 C 6.828125 -2.753906 6.710938 -2.378906 6.484375 -2.109375 C 5.273438 -0.640625 4.148438 0.09375 3.109375 0.09375 Z M 3.109375 0.09375 "/></g></g></g><g fill="#167cc4" fill-opacity="1"><g transform="translate(243.848237, 162.201329)"><g><path d="M 11.21875 -4.0625 C 11.375 -4.0625 11.492188 -3.988281 11.578125 -3.84375 C 11.671875 -3.695312 11.71875 -3.492188 11.71875 -3.234375 C 11.71875 -2.753906 11.601562 -2.378906 11.375 -2.109375 C 10.875 -1.503906 10.328125 -0.984375 9.734375 -0.546875 C 9.140625 -0.117188 8.550781 0.09375 7.96875 0.09375 C 7.050781 0.09375 6.347656 -0.445312 5.859375 -1.53125 C 5.347656 -0.882812 4.898438 -0.453125 4.515625 -0.234375 C 4.140625 -0.015625 3.695312 0.09375 3.1875 0.09375 C 2.445312 0.09375 1.835938 -0.179688 1.359375 -0.734375 C 0.878906 -1.285156 0.640625 -2.003906 0.640625 -2.890625 C 0.640625 -3.859375 0.84375 -4.757812 1.25 -5.59375 C 1.664062 -6.425781 2.234375 -7.101562 2.953125 -7.625 C 3.679688 -8.15625 4.492188 -8.472656 5.390625 -8.578125 C 5.617188 -10.929688 6.054688 -12.941406 6.703125 -14.609375 C 7.359375 -16.273438 8.210938 -17.109375 9.265625 -17.109375 C 9.785156 -17.109375 10.21875 -16.867188 10.5625 -16.390625 C 10.90625 -15.921875 11.078125 -15.207031 11.078125 -14.25 C 11.078125 -12.894531 10.742188 -11.304688 10.078125 -9.484375 C 9.410156 -7.660156 8.519531 -5.789062 7.40625 -3.875 C 7.457031 -3.175781 7.5625 -2.671875 7.71875 -2.359375 C 7.882812 -2.054688 8.097656 -1.90625 8.359375 -1.90625 C 8.679688 -1.90625 9.007812 -2.050781 9.34375 -2.34375 C 9.6875 -2.632812 10.144531 -3.117188 10.71875 -3.796875 C 10.863281 -3.972656 11.03125 -4.0625 11.21875 -4.0625 Z M 9.0625 -15.328125 C 8.832031 -15.328125 8.601562 -14.914062 8.375 -14.09375 C 8.144531 -13.28125 7.945312 -12.210938 7.78125 -10.890625 C 7.613281 -9.566406 7.492188 -8.179688 7.421875 -6.734375 C 8.785156 -9.691406 9.46875 -12.070312 9.46875 -13.875 C 9.46875 -14.332031 9.425781 -14.6875 9.34375 -14.9375 C 9.269531 -15.195312 9.175781 -15.328125 9.0625 -15.328125 Z M 3.828125 -1.75 C 4.054688 -1.75 4.285156 -1.84375 4.515625 -2.03125 C 4.742188 -2.21875 5.035156 -2.566406 5.390625 -3.078125 C 5.265625 -3.734375 5.203125 -4.46875 5.203125 -5.28125 C 5.203125 -5.570312 5.21875 -6.046875 5.25 -6.703125 C 4.570312 -6.492188 4.007812 -6.046875 3.5625 -5.359375 C 3.125 -4.671875 2.90625 -3.910156 2.90625 -3.078125 C 2.90625 -2.191406 3.210938 -1.75 3.828125 -1.75 Z M 3.828125 -1.75 "/></g></g></g><g fill="#167cc4" fill-opacity="1"><g transform="translate(253.221177, 162.201329)"><g><path d="M 3.109375 0.09375 C 2.359375 0.09375 1.757812 -0.175781 1.3125 -0.71875 C 0.863281 -1.269531 0.640625 -1.988281 0.640625 -2.875 C 0.640625 -3.84375 0.863281 -4.757812 1.3125 -5.625 C 1.757812 -6.5 2.351562 -7.195312 3.09375 -7.71875 C 3.84375 -8.25 4.640625 -8.515625 5.484375 -8.515625 C 5.742188 -8.515625 5.921875 -8.460938 6.015625 -8.359375 C 6.109375 -8.253906 6.1875 -8.070312 6.25 -7.8125 C 6.5 -7.851562 6.765625 -7.875 7.046875 -7.875 C 7.640625 -7.875 7.9375 -7.664062 7.9375 -7.25 C 7.9375 -6.988281 7.84375 -6.378906 7.65625 -5.421875 C 7.382812 -4.023438 7.25 -3.054688 7.25 -2.515625 C 7.25 -2.328125 7.289062 -2.175781 7.375 -2.0625 C 7.46875 -1.957031 7.585938 -1.90625 7.734375 -1.90625 C 7.960938 -1.90625 8.238281 -2.050781 8.5625 -2.34375 C 8.894531 -2.644531 9.34375 -3.128906 9.90625 -3.796875 C 10.050781 -3.972656 10.210938 -4.0625 10.390625 -4.0625 C 10.546875 -4.0625 10.671875 -3.988281 10.765625 -3.84375 C 10.859375 -3.695312 10.90625 -3.492188 10.90625 -3.234375 C 10.90625 -2.753906 10.789062 -2.378906 10.5625 -2.109375 C 10.0625 -1.492188 9.53125 -0.972656 8.96875 -0.546875 C 8.414062 -0.117188 7.878906 0.09375 7.359375 0.09375 C 6.953125 0.09375 6.582031 -0.0390625 6.25 -0.3125 C 5.914062 -0.59375 5.664062 -0.96875 5.5 -1.4375 C 4.863281 -0.414062 4.066406 0.09375 3.109375 0.09375 Z M 3.765625 -1.75 C 4.035156 -1.75 4.289062 -1.90625 4.53125 -2.21875 C 4.769531 -2.53125 4.945312 -2.953125 5.0625 -3.484375 L 5.734375 -6.828125 C 5.222656 -6.816406 4.75 -6.625 4.3125 -6.25 C 3.882812 -5.882812 3.539062 -5.394531 3.28125 -4.78125 C 3.03125 -4.175781 2.90625 -3.535156 2.90625 -2.859375 C 2.90625 -2.484375 2.984375 -2.203125 3.140625 -2.015625 C 3.296875 -1.835938 3.503906 -1.75 3.765625 -1.75 Z M 3.765625 -1.75 "/></g></g></g><g fill="#167cc4" fill-opacity="1"><g transform="translate(261.775129, 162.201329)"><g><path d="M 10.1875 -4.015625 C 10.351562 -4.015625 10.476562 -3.9375 10.5625 -3.78125 C 10.65625 -3.632812 10.703125 -3.445312 10.703125 -3.21875 C 10.703125 -2.9375 10.660156 -2.71875 10.578125 -2.5625 C 10.492188 -2.40625 10.359375 -2.265625 10.171875 -2.140625 L 6.6875 0.203125 C 6.21875 2.710938 5.609375 4.6875 4.859375 6.125 C 4.117188 7.5625 3.171875 8.28125 2.015625 8.28125 C 1.398438 8.28125 0.894531 8.085938 0.5 7.703125 C 0.113281 7.328125 -0.078125 6.828125 -0.078125 6.203125 C -0.078125 5.640625 0.0507812 5.054688 0.3125 4.453125 C 0.570312 3.859375 1.054688 3.175781 1.765625 2.40625 C 2.484375 1.632812 3.488281 0.753906 4.78125 -0.234375 L 4.84375 -0.65625 C 4.925781 -1.101562 5.023438 -1.742188 5.140625 -2.578125 C 4.890625 -1.710938 4.546875 -1.050781 4.109375 -0.59375 C 3.671875 -0.132812 3.210938 0.09375 2.734375 0.09375 C 2.179688 0.09375 1.734375 -0.15625 1.390625 -0.65625 C 1.046875 -1.164062 0.875 -1.796875 0.875 -2.546875 C 0.875 -3.453125 0.929688 -4.285156 1.046875 -5.046875 C 1.171875 -5.804688 1.375 -6.613281 1.65625 -7.46875 C 1.78125 -7.832031 1.953125 -8.09375 2.171875 -8.25 C 2.390625 -8.40625 2.734375 -8.484375 3.203125 -8.484375 C 3.472656 -8.484375 3.65625 -8.441406 3.75 -8.359375 C 3.851562 -8.273438 3.90625 -8.144531 3.90625 -7.96875 C 3.90625 -7.875 3.84375 -7.546875 3.71875 -6.984375 C 3.59375 -6.535156 3.492188 -6.128906 3.421875 -5.765625 C 3.328125 -5.273438 3.242188 -4.800781 3.171875 -4.34375 C 3.097656 -3.882812 3.0625 -3.507812 3.0625 -3.21875 C 3.0625 -2.757812 3.1875 -2.53125 3.4375 -2.53125 C 3.625 -2.53125 3.851562 -2.710938 4.125 -3.078125 C 4.394531 -3.441406 4.679688 -3.992188 4.984375 -4.734375 C 5.296875 -5.472656 5.597656 -6.382812 5.890625 -7.46875 C 5.992188 -7.832031 6.144531 -8.09375 6.34375 -8.25 C 6.539062 -8.40625 6.84375 -8.484375 7.25 -8.484375 C 7.519531 -8.484375 7.707031 -8.445312 7.8125 -8.375 C 7.925781 -8.300781 7.984375 -8.179688 7.984375 -8.015625 C 7.984375 -7.703125 7.828125 -6.65625 7.515625 -4.875 L 7.046875 -1.953125 C 7.984375 -2.648438 8.894531 -3.289062 9.78125 -3.875 C 9.9375 -3.96875 10.070312 -4.015625 10.1875 -4.015625 Z M 2.21875 6.515625 C 2.519531 6.515625 2.859375 6.160156 3.234375 5.453125 C 3.609375 4.753906 3.988281 3.585938 4.375 1.953125 C 3.4375 2.734375 2.757812 3.445312 2.34375 4.09375 C 1.925781 4.75 1.71875 5.320312 1.71875 5.8125 C 1.71875 6.007812 1.753906 6.175781 1.828125 6.3125 C 1.910156 6.445312 2.039062 6.515625 2.21875 6.515625 Z M 2.21875 6.515625 "/></g></g></g><g fill="#167cc4" fill-opacity="1"><g transform="translate(270.49288, 162.201329)"><g><path d="M 4.265625 0.484375 C 3.628906 0.484375 3.144531 0.335938 2.8125 0.046875 C 2.476562 -0.234375 2.3125 -0.554688 2.3125 -0.921875 C 2.3125 -1.242188 2.425781 -1.519531 2.65625 -1.75 C 2.882812 -1.976562 3.222656 -2.09375 3.671875 -2.09375 C 3.828125 -2.09375 4.007812 -2.078125 4.21875 -2.046875 C 4.4375 -2.015625 4.601562 -1.992188 4.71875 -1.984375 C 4.707031 -2.296875 4.632812 -2.59375 4.5 -2.875 C 4.375 -3.15625 4.210938 -3.425781 4.015625 -3.6875 C 3.828125 -3.945312 3.648438 -4.175781 3.484375 -4.375 C 3.097656 -3.65625 2.71875 -3.054688 2.34375 -2.578125 C 1.976562 -2.109375 1.578125 -1.660156 1.140625 -1.234375 C 0.921875 -1.015625 0.691406 -0.90625 0.453125 -0.90625 C 0.253906 -0.90625 0.0976562 -0.972656 -0.015625 -1.109375 C -0.140625 -1.253906 -0.203125 -1.429688 -0.203125 -1.640625 C -0.203125 -1.878906 -0.117188 -2.101562 0.046875 -2.3125 L 0.296875 -2.609375 C 0.960938 -3.429688 1.460938 -4.109375 1.796875 -4.640625 C 2.003906 -4.992188 2.25 -5.460938 2.53125 -6.046875 C 2.8125 -6.640625 3.082031 -7.25 3.34375 -7.875 C 3.570312 -8.414062 4.050781 -8.6875 4.78125 -8.6875 C 5.125 -8.6875 5.363281 -8.65625 5.5 -8.59375 C 5.632812 -8.53125 5.703125 -8.429688 5.703125 -8.296875 C 5.703125 -8.222656 5.675781 -8.109375 5.625 -7.953125 C 5.570312 -7.796875 5.503906 -7.640625 5.421875 -7.484375 C 5.203125 -7.046875 5.09375 -6.675781 5.09375 -6.375 C 5.09375 -6.1875 5.15625 -5.984375 5.28125 -5.765625 C 5.414062 -5.546875 5.613281 -5.273438 5.875 -4.953125 C 6.269531 -4.441406 6.566406 -4.003906 6.765625 -3.640625 C 6.960938 -3.285156 7.0625 -2.894531 7.0625 -2.46875 C 7.0625 -2.351562 7.050781 -2.1875 7.03125 -1.96875 C 7.625 -2.195312 8.320312 -2.804688 9.125 -3.796875 C 9.269531 -3.972656 9.429688 -4.0625 9.609375 -4.0625 C 9.765625 -4.0625 9.890625 -3.988281 9.984375 -3.84375 C 10.078125 -3.695312 10.125 -3.492188 10.125 -3.234375 C 10.125 -2.773438 10.007812 -2.398438 9.78125 -2.109375 C 9.164062 -1.359375 8.582031 -0.84375 8.03125 -0.5625 C 7.476562 -0.289062 6.796875 -0.144531 5.984375 -0.125 C 5.503906 0.28125 4.929688 0.484375 4.265625 0.484375 Z M 4.265625 0.484375 "/></g></g></g></svg>