<svg xmlns="http://www.w3.org/2000/svg" xmlns:xlink="http://www.w3.org/1999/xlink" width="500" zoomAndPan="magnify" viewBox="0 0 375 374.999991" height="500" preserveAspectRatio="xMidYMid meet" version="1.0"><defs><g/></defs><g fill="#084e74" fill-opacity="0.4"><g transform="translate(116.542549, 248.713548)"><g><path d="M 20.363281 -11.152344 C 20.363281 -13.402344 20.363281 -15.648438 20.363281 -17.898438 C 20.363281 -19.152344 20.449219 -20.449219 20.363281 -21.703125 C 20.316406 -22.957031 20.316406 -24.164062 20.273438 -25.417969 C 20.273438 -26.933594 20.273438 -28.488281 20.230469 -30 C 20.230469 -30.132812 20.230469 -30.261719 20.1875 -30.390625 C 20.144531 -30.691406 20.015625 -30.78125 19.710938 -30.738281 C 19.28125 -30.738281 18.847656 -30.738281 18.414062 -30.738281 C 17.550781 -30.738281 16.644531 -30.738281 15.777344 -30.738281 C 15.519531 -30.738281 15.347656 -30.605469 15.261719 -30.390625 C 15.085938 -30 14.957031 -29.570312 14.957031 -29.136719 C 14.957031 -28.660156 14.914062 -28.1875 14.914062 -27.710938 C 14.914062 -25.074219 14.914062 -22.4375 14.871094 -19.800781 C 14.871094 -19.410156 14.871094 -19.410156 14.480469 -19.410156 C 13.703125 -19.410156 12.925781 -19.410156 12.148438 -19.367188 C 11.457031 -19.324219 10.808594 -19.238281 10.117188 -19.195312 C 9.335938 -19.195312 8.601562 -19.238281 7.867188 -19.28125 C 7.695312 -19.28125 7.566406 -19.324219 7.609375 -19.496094 C 7.609375 -19.582031 7.609375 -19.667969 7.609375 -19.757812 C 7.609375 -21.011719 7.609375 -22.261719 7.609375 -23.515625 C 7.652344 -25.550781 7.566406 -27.625 7.523438 -29.65625 C 7.480469 -29.828125 7.480469 -30.042969 7.390625 -30.175781 C 7.175781 -30.476562 6.875 -30.738281 6.484375 -30.691406 C 6.355469 -30.691406 6.226562 -30.691406 6.09375 -30.691406 C 5.488281 -30.691406 4.886719 -30.648438 4.28125 -30.648438 C 3.71875 -30.648438 3.199219 -30.648438 2.636719 -30.605469 C 2.292969 -30.605469 2.117188 -30.433594 2.074219 -30.042969 C 2.03125 -29.828125 2.03125 -29.613281 2.03125 -29.394531 C 1.988281 -28.835938 2.03125 -28.273438 1.945312 -27.753906 C 1.816406 -26.371094 1.773438 -24.945312 1.859375 -23.558594 C 1.988281 -21.960938 2.03125 -20.316406 1.988281 -18.675781 C 1.988281 -17.550781 1.945312 -16.46875 1.902344 -15.347656 C 1.859375 -14.308594 1.859375 -13.226562 1.859375 -12.191406 C 1.816406 -11.023438 1.773438 -9.898438 1.730469 -8.734375 C 1.730469 -6.269531 1.730469 -3.761719 1.730469 -1.296875 C 1.730469 -0.996094 1.730469 -0.648438 1.773438 -0.347656 C 1.816406 0.128906 2.117188 0.433594 2.59375 0.476562 C 2.679688 0.476562 2.722656 0.476562 2.765625 0.476562 C 4.148438 0.433594 5.578125 0.433594 6.960938 0.390625 C 7.003906 0.390625 7.046875 0.390625 7.046875 0.390625 C 7.21875 0.433594 7.304688 0.347656 7.347656 0.171875 C 7.390625 -0.0429688 7.4375 -0.257812 7.4375 -0.476562 C 7.480469 -1.296875 7.480469 -2.160156 7.480469 -3.027344 C 7.480469 -4.582031 7.523438 -6.136719 7.523438 -7.738281 C 7.566406 -9.597656 7.566406 -11.5 7.609375 -13.359375 C 7.609375 -13.617188 7.652344 -13.660156 7.910156 -13.617188 C 8.34375 -13.617188 8.777344 -13.617188 9.207031 -13.617188 C 9.855469 -13.660156 10.503906 -13.703125 11.152344 -13.746094 C 11.328125 -13.789062 11.5 -13.789062 11.671875 -13.789062 C 12.625 -13.921875 13.617188 -13.875 14.613281 -13.875 C 14.785156 -13.875 14.871094 -13.832031 14.871094 -13.660156 C 14.871094 -13.574219 14.871094 -13.53125 14.871094 -13.445312 C 14.828125 -12.019531 14.785156 -10.546875 14.785156 -9.121094 C 14.785156 -7.4375 14.828125 -5.75 14.828125 -4.0625 C 14.828125 -2.984375 14.828125 -1.859375 14.785156 -0.777344 C 14.785156 -0.347656 14.957031 0 15.390625 0.128906 C 15.691406 0.257812 15.996094 0.347656 16.339844 0.390625 C 17.378906 0.476562 18.414062 0.433594 19.410156 0.257812 C 20.015625 0.171875 20.273438 -0.214844 20.273438 -0.777344 C 20.273438 -0.90625 20.273438 -1.039062 20.273438 -1.210938 C 20.316406 -2.894531 20.363281 -4.582031 20.40625 -6.269531 C 20.40625 -7.867188 20.363281 -9.511719 20.363281 -11.152344 Z M 20.363281 -11.152344 "/></g></g></g><g fill="#084e74" fill-opacity="0.4"><g transform="translate(138.670569, 248.713548)"><g><path d="M 22.78125 -16.082031 C 22.824219 -17.679688 22.609375 -19.238281 22.308594 -20.792969 C 22.132812 -21.746094 21.917969 -22.695312 21.703125 -23.648438 C 21.398438 -25.203125 20.664062 -26.542969 19.710938 -27.796875 C 19.28125 -28.359375 18.804688 -28.921875 18.15625 -29.351562 C 17.464844 -29.785156 16.6875 -30.132812 15.910156 -30.519531 C 15.910156 -30.519531 15.867188 -30.519531 15.867188 -30.5625 C 15.304688 -30.691406 14.785156 -30.824219 14.222656 -30.910156 C 13.359375 -30.996094 12.492188 -30.953125 11.628906 -30.953125 C 11.023438 -30.910156 10.375 -30.867188 9.769531 -30.648438 C 8.863281 -30.347656 7.953125 -30 7.175781 -29.394531 C 6.570312 -28.921875 5.878906 -28.488281 5.359375 -27.882812 C 4.753906 -27.148438 4.28125 -26.371094 3.804688 -25.550781 C 3.5 -24.945312 3.328125 -24.296875 3.113281 -23.691406 C 2.59375 -22.132812 2.292969 -20.578125 2.117188 -18.976562 C 2.03125 -18.285156 1.988281 -17.59375 1.945312 -16.945312 C 1.902344 -16.039062 1.816406 -15.128906 1.773438 -14.222656 C 1.730469 -13.226562 1.773438 -12.234375 1.988281 -11.238281 C 1.988281 -11.066406 2.03125 -10.894531 2.03125 -10.722656 C 2.117188 -10.074219 2.160156 -9.46875 2.203125 -8.820312 C 2.335938 -7.910156 2.59375 -7.089844 2.894531 -6.269531 C 3.457031 -4.667969 4.324219 -3.199219 5.445312 -1.945312 C 5.621094 -1.773438 5.835938 -1.597656 6.007812 -1.425781 C 6.226562 -1.296875 6.398438 -1.125 6.570312 -0.996094 C 7.175781 -0.519531 7.824219 -0.171875 8.515625 0 C 9.640625 0.347656 10.808594 0.476562 11.976562 0.519531 C 12.96875 0.519531 13.964844 0.519531 14.871094 0.0429688 C 15.21875 -0.0859375 15.519531 -0.214844 15.867188 -0.347656 C 16.039062 -0.433594 16.210938 -0.5625 16.382812 -0.691406 C 16.601562 -0.863281 16.816406 -1.039062 17.03125 -1.167969 C 17.765625 -1.6875 18.460938 -2.203125 18.933594 -2.984375 C 19.324219 -3.589844 19.757812 -4.191406 20.058594 -4.839844 C 20.621094 -5.921875 21.097656 -7.003906 21.441406 -8.171875 C 21.917969 -9.640625 22.351562 -11.109375 22.523438 -12.667969 C 22.566406 -13.054688 22.523438 -13.445312 22.652344 -13.832031 C 22.78125 -14.265625 22.738281 -14.742188 22.78125 -15.171875 C 22.78125 -15.476562 22.78125 -15.777344 22.78125 -16.082031 Z M 7.4375 -14.785156 C 7.347656 -16.167969 7.4375 -17.507812 7.738281 -18.847656 C 8.128906 -20.492188 8.777344 -22.046875 9.855469 -23.386719 C 10.460938 -24.078125 11.28125 -24.511719 12.191406 -24.511719 C 13.097656 -24.554688 13.921875 -24.253906 14.613281 -23.734375 C 14.699219 -23.648438 14.785156 -23.605469 14.828125 -23.472656 C 15.304688 -22.78125 15.691406 -22.003906 15.953125 -21.183594 C 16.296875 -19.929688 16.558594 -18.632812 16.6875 -17.378906 C 16.730469 -16.253906 16.6875 -15.171875 16.644531 -14.09375 C 16.644531 -13.402344 16.601562 -12.710938 16.46875 -12.0625 C 16.253906 -10.589844 15.953125 -9.121094 15.433594 -7.695312 C 15.21875 -7.089844 14.871094 -6.570312 14.308594 -6.3125 C 13.617188 -5.921875 12.839844 -5.664062 12.019531 -5.835938 C 11.542969 -5.921875 11.066406 -6.007812 10.589844 -6.136719 C 9.640625 -6.398438 9.035156 -7.003906 8.558594 -7.824219 C 8.085938 -8.820312 7.867188 -9.8125 7.695312 -10.851562 C 7.480469 -12.191406 7.347656 -13.488281 7.4375 -14.785156 Z M 7.4375 -14.785156 "/></g></g></g><g fill="#084e74" fill-opacity="0.4"><g transform="translate(163.218842, 248.713548)"><g><path d="M 1.816406 -11.84375 C 1.816406 -9.726562 1.773438 -7.566406 1.816406 -5.445312 C 1.816406 -3.804688 1.859375 -2.160156 1.902344 -0.5625 C 1.945312 0.214844 2.160156 0.390625 2.894531 0.390625 C 3.890625 0.347656 4.886719 0.171875 5.878906 0.214844 C 6.441406 0.214844 6.960938 0.171875 7.523438 0.171875 C 8.515625 0.214844 9.511719 0.257812 10.503906 0.300781 C 11.929688 0.347656 13.359375 0.300781 14.742188 0.214844 C 15 0.171875 15.304688 0.128906 15.519531 0.0429688 C 15.910156 -0.0429688 15.996094 -0.171875 16.039062 -0.5625 C 16.039062 -0.648438 16.039062 -0.691406 16.039062 -0.820312 C 16.082031 -1.554688 16.082031 -2.292969 16.125 -3.070312 C 16.167969 -3.589844 16.167969 -4.0625 16.167969 -4.582031 C 16.167969 -4.972656 15.953125 -5.316406 15.691406 -5.402344 C 15.433594 -5.445312 15.21875 -5.488281 14.957031 -5.488281 C 14.394531 -5.535156 13.789062 -5.535156 13.183594 -5.578125 C 11.585938 -5.621094 9.984375 -5.835938 8.386719 -5.835938 C 8.214844 -5.835938 8.085938 -5.835938 7.910156 -5.835938 C 7.738281 -5.835938 7.695312 -5.878906 7.695312 -6.050781 C 7.695312 -6.789062 7.738281 -7.566406 7.738281 -8.34375 C 7.695312 -10.722656 7.695312 -13.140625 7.652344 -15.519531 C 7.609375 -16.6875 7.523438 -17.898438 7.566406 -19.0625 C 7.609375 -22.308594 7.480469 -25.503906 7.347656 -28.746094 C 7.347656 -29.222656 7.347656 -29.699219 7.347656 -30.175781 C 7.347656 -30.433594 7.175781 -30.648438 6.875 -30.648438 C 6.699219 -30.691406 6.527344 -30.691406 6.3125 -30.691406 C 5.144531 -30.648438 3.976562 -30.648438 2.765625 -30.605469 C 2.203125 -30.605469 1.945312 -30.5625 1.902344 -29.742188 C 1.859375 -29.007812 1.859375 -28.316406 1.859375 -27.539062 C 1.816406 -27.105469 1.816406 -26.671875 1.773438 -26.242188 C 1.773438 -25.503906 1.730469 -24.769531 1.730469 -24.078125 C 1.730469 -23.042969 1.773438 -22.003906 1.816406 -20.964844 C 1.816406 -17.941406 1.816406 -14.871094 1.816406 -11.84375 Z M 1.816406 -11.84375 "/></g></g></g><g fill="#084e74" fill-opacity="0.4"><g transform="translate(181.111415, 248.713548)"><g><path d="M 7.175781 -26.976562 C 7.132812 -26.976562 7.132812 -26.976562 7.132812 -26.976562 C 7.132812 -28.011719 7.132812 -29.09375 7.132812 -30.132812 C 7.132812 -30.648438 6.917969 -30.824219 6.398438 -30.78125 C 6.050781 -30.738281 5.707031 -30.738281 5.402344 -30.738281 C 4.796875 -30.738281 4.148438 -30.738281 3.542969 -30.738281 C 3.15625 -30.738281 2.808594 -30.691406 2.421875 -30.648438 C 2.074219 -30.605469 1.902344 -30.433594 1.859375 -30.089844 C 1.816406 -29.570312 1.773438 -29.050781 1.773438 -28.53125 C 1.773438 -27.710938 1.816406 -26.890625 1.816406 -26.066406 C 1.816406 -24.945312 1.816406 -23.777344 1.816406 -22.609375 C 1.816406 -22.132812 1.859375 -21.660156 1.859375 -21.183594 C 1.859375 -18.804688 1.902344 -16.425781 1.859375 -14.050781 C 1.859375 -12.320312 1.859375 -10.546875 1.773438 -8.777344 C 1.730469 -7.003906 1.730469 -5.1875 1.773438 -3.371094 C 1.816406 -2.507812 1.773438 -1.597656 1.773438 -0.734375 C 1.773438 -0.476562 1.730469 -0.257812 1.730469 0 C 1.730469 0.347656 1.859375 0.433594 2.203125 0.476562 C 2.292969 0.476562 2.378906 0.476562 2.464844 0.476562 C 3.761719 0.476562 5.058594 0.476562 6.355469 0.433594 C 6.570312 0.433594 6.832031 0.300781 6.917969 0 C 6.917969 -0.0859375 6.960938 -0.214844 6.960938 -0.347656 C 7.003906 -1.773438 7.046875 -3.242188 7.089844 -4.710938 C 7.089844 -5.058594 7.132812 -5.445312 7.132812 -5.792969 C 7.175781 -6.441406 7.21875 -7.089844 7.21875 -7.738281 C 7.261719 -9.335938 7.261719 -10.9375 7.261719 -12.492188 C 7.261719 -13.054688 7.21875 -13.617188 7.21875 -14.179688 C 7.175781 -14.957031 7.132812 -15.777344 7.132812 -16.558594 C 7.132812 -17.335938 7.175781 -18.113281 7.175781 -18.847656 C 7.175781 -20.230469 7.132812 -21.570312 7.132812 -22.910156 C 7.132812 -23.214844 7.175781 -23.515625 7.175781 -23.863281 C 7.175781 -24.902344 7.175781 -25.9375 7.175781 -26.976562 Z M 7.175781 -26.976562 "/></g></g></g><g fill="#084e74" fill-opacity="0.4"><g transform="translate(190.10092, 248.713548)"><g><path d="M 8.863281 0.171875 C 9.164062 0.171875 9.46875 0.128906 9.769531 0.171875 C 10.9375 0.214844 12.0625 0.171875 13.183594 -0.0429688 C 13.789062 -0.128906 14.351562 -0.257812 14.871094 -0.519531 C 14.957031 -0.605469 15.085938 -0.605469 15.171875 -0.648438 C 16.382812 -1.210938 17.464844 -2.03125 18.460938 -2.941406 C 18.761719 -3.199219 18.976562 -3.589844 19.238281 -3.890625 C 19.800781 -4.496094 20.1875 -5.1875 20.535156 -5.921875 C 20.921875 -6.789062 21.226562 -7.695312 21.484375 -8.601562 C 21.703125 -9.335938 21.832031 -10.117188 22.003906 -10.894531 C 22.308594 -12.234375 22.4375 -13.617188 22.4375 -15 C 22.4375 -15.910156 22.351562 -16.859375 22.308594 -17.765625 C 22.261719 -18.589844 22.21875 -19.367188 22.046875 -20.144531 C 21.960938 -20.75 21.875 -21.355469 21.832031 -21.960938 C 21.789062 -22.867188 21.527344 -23.691406 21.183594 -24.511719 C 20.707031 -25.460938 20.101562 -26.328125 19.496094 -27.148438 C 19.019531 -27.753906 18.503906 -28.273438 17.855469 -28.617188 C 17.636719 -28.746094 17.421875 -28.878906 17.25 -29.007812 C 16.601562 -29.570312 15.867188 -29.957031 15.171875 -30.390625 C 14.480469 -30.78125 13.789062 -30.953125 13.011719 -30.867188 C 12.492188 -30.78125 11.976562 -30.738281 11.457031 -30.824219 C 11.28125 -30.867188 11.152344 -30.867188 10.980469 -30.867188 C 9.8125 -30.824219 8.644531 -30.78125 7.480469 -30.78125 C 6.398438 -30.78125 5.359375 -30.824219 4.324219 -30.824219 C 3.804688 -30.824219 3.285156 -30.738281 2.765625 -30.648438 C 2.378906 -30.605469 2.117188 -30.347656 2.074219 -29.957031 C 2.03125 -29.570312 1.988281 -29.179688 1.988281 -28.792969 C 1.988281 -28.316406 1.988281 -27.839844 1.945312 -27.363281 C 1.859375 -27.105469 1.902344 -26.800781 1.902344 -26.542969 C 1.902344 -25.894531 1.988281 -25.246094 1.988281 -24.554688 C 1.988281 -23.777344 1.902344 -22.957031 1.902344 -22.132812 C 1.773438 -19.0625 1.730469 -15.953125 1.816406 -12.882812 C 1.859375 -11.542969 1.859375 -10.203125 1.902344 -8.863281 C 1.945312 -7.21875 1.988281 -5.621094 2.074219 -4.019531 C 2.117188 -2.851562 2.203125 -1.730469 2.292969 -0.605469 C 2.335938 -0.257812 2.550781 0 2.894531 0.0429688 C 3.113281 0.0859375 3.328125 0.0859375 3.542969 0.0859375 C 4.105469 0.0859375 4.710938 0.0859375 5.230469 0.0859375 C 5.792969 0.128906 6.3125 0.171875 6.875 0.171875 C 7.523438 0.171875 8.214844 0.171875 8.863281 0.171875 Z M 8.601562 -15 C 8.601562 -15.910156 8.601562 -16.773438 8.601562 -17.679688 C 8.558594 -19.496094 8.515625 -21.355469 8.472656 -23.171875 C 8.472656 -23.257812 8.472656 -23.34375 8.515625 -23.429688 C 8.515625 -23.472656 8.601562 -23.558594 8.644531 -23.605469 C 8.820312 -23.648438 8.992188 -23.648438 9.164062 -23.648438 C 9.683594 -23.691406 10.203125 -23.691406 10.722656 -23.691406 C 11.371094 -23.691406 11.976562 -23.558594 12.449219 -23.042969 C 12.625 -22.910156 12.796875 -22.78125 12.96875 -22.695312 C 13.703125 -22.261719 14.179688 -21.570312 14.4375 -20.792969 C 14.785156 -19.800781 15.085938 -18.804688 15.304688 -17.765625 C 15.605469 -16.644531 15.734375 -15.519531 15.691406 -14.394531 C 15.691406 -14.050781 15.691406 -13.660156 15.734375 -13.316406 C 15.734375 -12.710938 15.691406 -12.191406 15.5625 -11.628906 C 15.304688 -10.808594 15.128906 -10.03125 14.785156 -9.292969 C 14.308594 -8.429688 13.660156 -7.738281 12.796875 -7.261719 C 12.0625 -6.917969 11.28125 -6.789062 10.503906 -6.65625 C 9.984375 -6.613281 9.46875 -6.527344 8.949219 -6.484375 C 8.601562 -6.484375 8.558594 -6.527344 8.558594 -6.875 C 8.558594 -8.300781 8.558594 -9.769531 8.558594 -11.238281 C 8.558594 -12.492188 8.601562 -13.746094 8.601562 -15 Z M 8.601562 -15 "/></g></g></g><g fill="#084e74" fill-opacity="0.4"><g transform="translate(213.395848, 248.713548)"><g><path d="M 7.175781 -26.976562 C 7.132812 -26.976562 7.132812 -26.976562 7.132812 -26.976562 C 7.132812 -28.011719 7.132812 -29.09375 7.132812 -30.132812 C 7.132812 -30.648438 6.917969 -30.824219 6.398438 -30.78125 C 6.050781 -30.738281 5.707031 -30.738281 5.402344 -30.738281 C 4.796875 -30.738281 4.148438 -30.738281 3.542969 -30.738281 C 3.15625 -30.738281 2.808594 -30.691406 2.421875 -30.648438 C 2.074219 -30.605469 1.902344 -30.433594 1.859375 -30.089844 C 1.816406 -29.570312 1.773438 -29.050781 1.773438 -28.53125 C 1.773438 -27.710938 1.816406 -26.890625 1.816406 -26.066406 C 1.816406 -24.945312 1.816406 -23.777344 1.816406 -22.609375 C 1.816406 -22.132812 1.859375 -21.660156 1.859375 -21.183594 C 1.859375 -18.804688 1.902344 -16.425781 1.859375 -14.050781 C 1.859375 -12.320312 1.859375 -10.546875 1.773438 -8.777344 C 1.730469 -7.003906 1.730469 -5.1875 1.773438 -3.371094 C 1.816406 -2.507812 1.773438 -1.597656 1.773438 -0.734375 C 1.773438 -0.476562 1.730469 -0.257812 1.730469 0 C 1.730469 0.347656 1.859375 0.433594 2.203125 0.476562 C 2.292969 0.476562 2.378906 0.476562 2.464844 0.476562 C 3.761719 0.476562 5.058594 0.476562 6.355469 0.433594 C 6.570312 0.433594 6.832031 0.300781 6.917969 0 C 6.917969 -0.0859375 6.960938 -0.214844 6.960938 -0.347656 C 7.003906 -1.773438 7.046875 -3.242188 7.089844 -4.710938 C 7.089844 -5.058594 7.132812 -5.445312 7.132812 -5.792969 C 7.175781 -6.441406 7.21875 -7.089844 7.21875 -7.738281 C 7.261719 -9.335938 7.261719 -10.9375 7.261719 -12.492188 C 7.261719 -13.054688 7.21875 -13.617188 7.21875 -14.179688 C 7.175781 -14.957031 7.132812 -15.777344 7.132812 -16.558594 C 7.132812 -17.335938 7.175781 -18.113281 7.175781 -18.847656 C 7.175781 -20.230469 7.132812 -21.570312 7.132812 -22.910156 C 7.132812 -23.214844 7.175781 -23.515625 7.175781 -23.863281 C 7.175781 -24.902344 7.175781 -25.9375 7.175781 -26.976562 Z M 7.175781 -26.976562 "/></g></g></g><g fill="#084e74" fill-opacity="0.4"><g transform="translate(222.385354, 248.713548)"><g><path d="M 1.816406 -14.914062 C 1.816406 -13.011719 1.816406 -11.066406 1.773438 -9.164062 C 1.773438 -8.300781 1.773438 -7.4375 1.773438 -6.527344 C 1.773438 -4.539062 1.773438 -2.507812 1.816406 -0.476562 C 1.816406 0.0429688 1.816406 0.0859375 2.378906 0.171875 C 2.464844 0.171875 2.550781 0.171875 2.636719 0.171875 C 3.113281 0.171875 3.589844 0.128906 4.019531 0.171875 C 5.015625 0.257812 6.007812 0.257812 7.003906 0.257812 C 7.175781 0.257812 7.304688 0.214844 7.4375 0.214844 C 7.824219 0.128906 7.996094 -0.0859375 8.039062 -0.476562 C 8.039062 -1.382812 8.085938 -2.335938 8.085938 -3.242188 C 8.039062 -5.316406 7.996094 -7.390625 7.996094 -9.46875 C 7.996094 -10.679688 8.039062 -11.886719 8.085938 -13.097656 C 8.085938 -13.273438 8.128906 -13.359375 8.300781 -13.359375 C 8.6875 -13.359375 9.078125 -13.402344 9.46875 -13.402344 C 10.722656 -13.445312 11.929688 -13.445312 13.140625 -13.359375 C 13.964844 -13.316406 14.828125 -13.359375 15.648438 -13.402344 C 15.910156 -13.445312 15.996094 -13.53125 15.996094 -13.832031 C 15.996094 -14.179688 16.039062 -14.523438 16.039062 -14.871094 C 16.039062 -15.820312 16.039062 -16.730469 15.996094 -17.636719 C 15.996094 -17.855469 15.910156 -18.070312 15.820312 -18.242188 C 15.648438 -18.589844 15.347656 -18.675781 15 -18.71875 C 13.789062 -18.71875 12.578125 -18.761719 11.414062 -18.761719 C 11.328125 -18.761719 11.238281 -18.761719 11.152344 -18.761719 C 10.332031 -18.71875 9.46875 -18.675781 8.601562 -18.632812 C 8.386719 -18.632812 8.34375 -18.675781 8.34375 -18.933594 C 8.34375 -19.28125 8.386719 -19.625 8.34375 -19.972656 C 8.34375 -21.355469 8.300781 -22.695312 8.300781 -24.078125 C 8.300781 -24.382812 8.300781 -24.382812 8.601562 -24.425781 C 9.207031 -24.46875 9.8125 -24.511719 10.417969 -24.554688 C 11.109375 -24.554688 11.84375 -24.640625 12.535156 -24.640625 C 13.445312 -24.683594 14.308594 -24.683594 15.21875 -24.683594 C 15.648438 -24.683594 16.125 -24.683594 16.558594 -24.726562 C 17.25 -24.8125 17.550781 -24.988281 17.636719 -25.722656 C 17.8125 -27.019531 17.8125 -28.316406 17.765625 -29.613281 C 17.765625 -29.742188 17.765625 -29.828125 17.722656 -29.914062 C 17.59375 -30.347656 17.421875 -30.691406 16.902344 -30.738281 C 16.425781 -30.824219 15.953125 -30.910156 15.476562 -30.910156 C 14.785156 -30.953125 14.09375 -30.910156 13.402344 -30.910156 C 11.152344 -30.910156 8.949219 -30.910156 6.699219 -30.910156 C 5.445312 -30.867188 4.148438 -30.738281 2.894531 -30.5625 C 2.550781 -30.519531 2.246094 -30.390625 2.03125 -30.132812 C 1.902344 -30.042969 1.816406 -29.828125 1.816406 -29.699219 C 1.773438 -29.265625 1.730469 -28.835938 1.773438 -28.402344 C 1.773438 -25.722656 1.816406 -23 1.816406 -20.273438 C 1.816406 -18.503906 1.816406 -16.730469 1.816406 -14.914062 Z M 1.816406 -14.914062 "/></g></g></g><g fill="#084e74" fill-opacity="0.4"><g transform="translate(241.055873, 248.713548)"><g><path d="M 10.679688 -23.085938 C 10.546875 -23.300781 10.460938 -23.472656 10.375 -23.648438 C 10.117188 -24.121094 9.898438 -24.554688 9.683594 -24.988281 C 9.46875 -25.417969 9.207031 -25.894531 8.992188 -26.328125 C 8.90625 -26.542969 8.820312 -26.757812 8.6875 -26.933594 C 8.171875 -27.96875 7.652344 -28.964844 7.21875 -30.042969 C 7.175781 -30.175781 7.089844 -30.304688 7.046875 -30.433594 C 6.917969 -30.605469 6.789062 -30.738281 6.527344 -30.78125 C 5.964844 -30.824219 5.445312 -30.867188 4.886719 -30.824219 C 4.238281 -30.78125 3.632812 -30.824219 2.984375 -30.78125 C 2.421875 -30.738281 1.859375 -30.691406 1.296875 -30.605469 C 0.90625 -30.5625 0.820312 -30.347656 0.949219 -30 C 1.210938 -29.441406 1.46875 -28.921875 1.773438 -28.359375 C 2.378906 -27.320312 2.941406 -26.199219 3.457031 -25.117188 C 4.019531 -23.949219 4.539062 -22.824219 5.1875 -21.746094 C 6.007812 -20.363281 6.832031 -18.933594 7.652344 -17.550781 C 8.085938 -16.859375 8.171875 -16.125 8.128906 -15.347656 C 8.039062 -13.574219 8.085938 -11.800781 8.128906 -10.074219 C 8.171875 -8.777344 8.214844 -7.523438 8.257812 -6.269531 C 8.257812 -4.410156 8.257812 -2.507812 8.257812 -0.648438 C 8.257812 -0.128906 8.601562 0.214844 9.164062 0.214844 C 10.460938 0.257812 11.757812 0.171875 13.054688 0.0429688 C 13.488281 0 13.789062 -0.300781 13.789062 -0.734375 C 13.832031 -1.988281 13.832031 -3.199219 13.832031 -4.410156 C 13.832031 -6.699219 13.832031 -8.992188 13.832031 -11.28125 C 13.832031 -11.886719 13.832031 -12.449219 13.789062 -13.011719 C 13.789062 -13.445312 13.789062 -13.875 13.789062 -14.308594 C 13.789062 -14.699219 13.789062 -15.085938 13.789062 -15.476562 C 13.789062 -15.953125 13.832031 -16.46875 14.007812 -16.945312 C 14.179688 -17.507812 14.351562 -18.070312 14.613281 -18.632812 C 15.171875 -19.929688 15.777344 -21.183594 16.382812 -22.480469 C 16.773438 -23.214844 17.164062 -23.949219 17.550781 -24.726562 C 18.113281 -25.808594 18.675781 -26.890625 19.238281 -27.96875 C 19.410156 -28.273438 19.539062 -28.574219 19.710938 -28.921875 C 19.84375 -29.222656 19.972656 -29.570312 20.144531 -29.871094 C 20.230469 -30.089844 20.40625 -30.261719 20.273438 -30.476562 C 20.144531 -30.78125 19.886719 -30.691406 19.625 -30.691406 C 19.019531 -30.648438 18.460938 -30.605469 17.855469 -30.605469 C 16.859375 -30.5625 15.910156 -30.519531 14.914062 -30.476562 C 14.742188 -30.476562 14.613281 -30.433594 14.523438 -30.261719 C 14.394531 -30.042969 14.222656 -29.785156 14.136719 -29.570312 C 13.574219 -28.359375 13.011719 -27.191406 12.320312 -26.066406 C 11.757812 -25.160156 11.238281 -24.253906 10.808594 -23.257812 C 10.765625 -23.214844 10.722656 -23.171875 10.679688 -23.085938 Z M 10.679688 -23.085938 "/></g></g></g><g fill="#1a7baf" fill-opacity="1"><g transform="translate(114.631806, 246.802805)"><g><path d="M 20.363281 -11.152344 C 20.363281 -13.402344 20.363281 -15.648438 20.363281 -17.898438 C 20.363281 -19.152344 20.449219 -20.449219 20.363281 -21.703125 C 20.316406 -22.957031 20.316406 -24.164062 20.273438 -25.417969 C 20.273438 -26.933594 20.273438 -28.488281 20.230469 -30 C 20.230469 -30.132812 20.230469 -30.261719 20.1875 -30.390625 C 20.144531 -30.691406 20.015625 -30.78125 19.710938 -30.738281 C 19.28125 -30.738281 18.847656 -30.738281 18.414062 -30.738281 C 17.550781 -30.738281 16.644531 -30.738281 15.777344 -30.738281 C 15.519531 -30.738281 15.347656 -30.605469 15.261719 -30.390625 C 15.085938 -30 14.957031 -29.570312 14.957031 -29.136719 C 14.957031 -28.660156 14.914062 -28.1875 14.914062 -27.710938 C 14.914062 -25.074219 14.914062 -22.4375 14.871094 -19.800781 C 14.871094 -19.410156 14.871094 -19.410156 14.480469 -19.410156 C 13.703125 -19.410156 12.925781 -19.410156 12.148438 -19.367188 C 11.457031 -19.324219 10.808594 -19.238281 10.117188 -19.195312 C 9.335938 -19.195312 8.601562 -19.238281 7.867188 -19.28125 C 7.695312 -19.28125 7.566406 -19.324219 7.609375 -19.496094 C 7.609375 -19.582031 7.609375 -19.667969 7.609375 -19.757812 C 7.609375 -21.011719 7.609375 -22.261719 7.609375 -23.515625 C 7.652344 -25.550781 7.566406 -27.625 7.523438 -29.65625 C 7.480469 -29.828125 7.480469 -30.042969 7.390625 -30.175781 C 7.175781 -30.476562 6.875 -30.738281 6.484375 -30.691406 C 6.355469 -30.691406 6.226562 -30.691406 6.09375 -30.691406 C 5.488281 -30.691406 4.886719 -30.648438 4.28125 -30.648438 C 3.71875 -30.648438 3.199219 -30.648438 2.636719 -30.605469 C 2.292969 -30.605469 2.117188 -30.433594 2.074219 -30.042969 C 2.03125 -29.828125 2.03125 -29.613281 2.03125 -29.394531 C 1.988281 -28.835938 2.03125 -28.273438 1.945312 -27.753906 C 1.816406 -26.371094 1.773438 -24.945312 1.859375 -23.558594 C 1.988281 -21.960938 2.03125 -20.316406 1.988281 -18.675781 C 1.988281 -17.550781 1.945312 -16.46875 1.902344 -15.347656 C 1.859375 -14.308594 1.859375 -13.226562 1.859375 -12.191406 C 1.816406 -11.023438 1.773438 -9.898438 1.730469 -8.734375 C 1.730469 -6.269531 1.730469 -3.761719 1.730469 -1.296875 C 1.730469 -0.996094 1.730469 -0.648438 1.773438 -0.347656 C 1.816406 0.128906 2.117188 0.433594 2.59375 0.476562 C 2.679688 0.476562 2.722656 0.476562 2.765625 0.476562 C 4.148438 0.433594 5.578125 0.433594 6.960938 0.390625 C 7.003906 0.390625 7.046875 0.390625 7.046875 0.390625 C 7.21875 0.433594 7.304688 0.347656 7.347656 0.171875 C 7.390625 -0.0429688 7.4375 -0.257812 7.4375 -0.476562 C 7.480469 -1.296875 7.480469 -2.160156 7.480469 -3.027344 C 7.480469 -4.582031 7.523438 -6.136719 7.523438 -7.738281 C 7.566406 -9.597656 7.566406 -11.5 7.609375 -13.359375 C 7.609375 -13.617188 7.652344 -13.660156 7.910156 -13.617188 C 8.34375 -13.617188 8.777344 -13.617188 9.207031 -13.617188 C 9.855469 -13.660156 10.503906 -13.703125 11.152344 -13.746094 C 11.328125 -13.789062 11.5 -13.789062 11.671875 -13.789062 C 12.625 -13.921875 13.617188 -13.875 14.613281 -13.875 C 14.785156 -13.875 14.871094 -13.832031 14.871094 -13.660156 C 14.871094 -13.574219 14.871094 -13.53125 14.871094 -13.445312 C 14.828125 -12.019531 14.785156 -10.546875 14.785156 -9.121094 C 14.785156 -7.4375 14.828125 -5.75 14.828125 -4.0625 C 14.828125 -2.984375 14.828125 -1.859375 14.785156 -0.777344 C 14.785156 -0.347656 14.957031 0 15.390625 0.128906 C 15.691406 0.257812 15.996094 0.347656 16.339844 0.390625 C 17.378906 0.476562 18.414062 0.433594 19.410156 0.257812 C 20.015625 0.171875 20.273438 -0.214844 20.273438 -0.777344 C 20.273438 -0.90625 20.273438 -1.039062 20.273438 -1.210938 C 20.316406 -2.894531 20.363281 -4.582031 20.40625 -6.269531 C 20.40625 -7.867188 20.363281 -9.511719 20.363281 -11.152344 Z M 20.363281 -11.152344 "/></g></g></g><g fill="#1a7baf" fill-opacity="1"><g transform="translate(136.759826, 246.802805)"><g><path d="M 22.78125 -16.082031 C 22.824219 -17.679688 22.609375 -19.238281 22.308594 -20.792969 C 22.132812 -21.746094 21.917969 -22.695312 21.703125 -23.648438 C 21.398438 -25.203125 20.664062 -26.542969 19.710938 -27.796875 C 19.28125 -28.359375 18.804688 -28.921875 18.15625 -29.351562 C 17.464844 -29.785156 16.6875 -30.132812 15.910156 -30.519531 C 15.910156 -30.519531 15.867188 -30.519531 15.867188 -30.5625 C 15.304688 -30.691406 14.785156 -30.824219 14.222656 -30.910156 C 13.359375 -30.996094 12.492188 -30.953125 11.628906 -30.953125 C 11.023438 -30.910156 10.375 -30.867188 9.769531 -30.648438 C 8.863281 -30.347656 7.953125 -30 7.175781 -29.394531 C 6.570312 -28.921875 5.878906 -28.488281 5.359375 -27.882812 C 4.753906 -27.148438 4.28125 -26.371094 3.804688 -25.550781 C 3.5 -24.945312 3.328125 -24.296875 3.113281 -23.691406 C 2.59375 -22.132812 2.292969 -20.578125 2.117188 -18.976562 C 2.03125 -18.285156 1.988281 -17.59375 1.945312 -16.945312 C 1.902344 -16.039062 1.816406 -15.128906 1.773438 -14.222656 C 1.730469 -13.226562 1.773438 -12.234375 1.988281 -11.238281 C 1.988281 -11.066406 2.03125 -10.894531 2.03125 -10.722656 C 2.117188 -10.074219 2.160156 -9.46875 2.203125 -8.820312 C 2.335938 -7.910156 2.59375 -7.089844 2.894531 -6.269531 C 3.457031 -4.667969 4.324219 -3.199219 5.445312 -1.945312 C 5.621094 -1.773438 5.835938 -1.597656 6.007812 -1.425781 C 6.226562 -1.296875 6.398438 -1.125 6.570312 -0.996094 C 7.175781 -0.519531 7.824219 -0.171875 8.515625 0 C 9.640625 0.347656 10.808594 0.476562 11.976562 0.519531 C 12.96875 0.519531 13.964844 0.519531 14.871094 0.0429688 C 15.21875 -0.0859375 15.519531 -0.214844 15.867188 -0.347656 C 16.039062 -0.433594 16.210938 -0.5625 16.382812 -0.691406 C 16.601562 -0.863281 16.816406 -1.039062 17.03125 -1.167969 C 17.765625 -1.6875 18.460938 -2.203125 18.933594 -2.984375 C 19.324219 -3.589844 19.757812 -4.191406 20.058594 -4.839844 C 20.621094 -5.921875 21.097656 -7.003906 21.441406 -8.171875 C 21.917969 -9.640625 22.351562 -11.109375 22.523438 -12.667969 C 22.566406 -13.054688 22.523438 -13.445312 22.652344 -13.832031 C 22.78125 -14.265625 22.738281 -14.742188 22.78125 -15.171875 C 22.78125 -15.476562 22.78125 -15.777344 22.78125 -16.082031 Z M 7.4375 -14.785156 C 7.347656 -16.167969 7.4375 -17.507812 7.738281 -18.847656 C 8.128906 -20.492188 8.777344 -22.046875 9.855469 -23.386719 C 10.460938 -24.078125 11.28125 -24.511719 12.191406 -24.511719 C 13.097656 -24.554688 13.921875 -24.253906 14.613281 -23.734375 C 14.699219 -23.648438 14.785156 -23.605469 14.828125 -23.472656 C 15.304688 -22.78125 15.691406 -22.003906 15.953125 -21.183594 C 16.296875 -19.929688 16.558594 -18.632812 16.6875 -17.378906 C 16.730469 -16.253906 16.6875 -15.171875 16.644531 -14.09375 C 16.644531 -13.402344 16.601562 -12.710938 16.46875 -12.0625 C 16.253906 -10.589844 15.953125 -9.121094 15.433594 -7.695312 C 15.21875 -7.089844 14.871094 -6.570312 14.308594 -6.3125 C 13.617188 -5.921875 12.839844 -5.664062 12.019531 -5.835938 C 11.542969 -5.921875 11.066406 -6.007812 10.589844 -6.136719 C 9.640625 -6.398438 9.035156 -7.003906 8.558594 -7.824219 C 8.085938 -8.820312 7.867188 -9.8125 7.695312 -10.851562 C 7.480469 -12.191406 7.347656 -13.488281 7.4375 -14.785156 Z M 7.4375 -14.785156 "/></g></g></g><g fill="#1a7baf" fill-opacity="1"><g transform="translate(161.308099, 246.802805)"><g><path d="M 1.816406 -11.84375 C 1.816406 -9.726562 1.773438 -7.566406 1.816406 -5.445312 C 1.816406 -3.804688 1.859375 -2.160156 1.902344 -0.5625 C 1.945312 0.214844 2.160156 0.390625 2.894531 0.390625 C 3.890625 0.347656 4.886719 0.171875 5.878906 0.214844 C 6.441406 0.214844 6.960938 0.171875 7.523438 0.171875 C 8.515625 0.214844 9.511719 0.257812 10.503906 0.300781 C 11.929688 0.347656 13.359375 0.300781 14.742188 0.214844 C 15 0.171875 15.304688 0.128906 15.519531 0.0429688 C 15.910156 -0.0429688 15.996094 -0.171875 16.039062 -0.5625 C 16.039062 -0.648438 16.039062 -0.691406 16.039062 -0.820312 C 16.082031 -1.554688 16.082031 -2.292969 16.125 -3.070312 C 16.167969 -3.589844 16.167969 -4.0625 16.167969 -4.582031 C 16.167969 -4.972656 15.953125 -5.316406 15.691406 -5.402344 C 15.433594 -5.445312 15.21875 -5.488281 14.957031 -5.488281 C 14.394531 -5.535156 13.789062 -5.535156 13.183594 -5.578125 C 11.585938 -5.621094 9.984375 -5.835938 8.386719 -5.835938 C 8.214844 -5.835938 8.085938 -5.835938 7.910156 -5.835938 C 7.738281 -5.835938 7.695312 -5.878906 7.695312 -6.050781 C 7.695312 -6.789062 7.738281 -7.566406 7.738281 -8.34375 C 7.695312 -10.722656 7.695312 -13.140625 7.652344 -15.519531 C 7.609375 -16.6875 7.523438 -17.898438 7.566406 -19.0625 C 7.609375 -22.308594 7.480469 -25.503906 7.347656 -28.746094 C 7.347656 -29.222656 7.347656 -29.699219 7.347656 -30.175781 C 7.347656 -30.433594 7.175781 -30.648438 6.875 -30.648438 C 6.699219 -30.691406 6.527344 -30.691406 6.3125 -30.691406 C 5.144531 -30.648438 3.976562 -30.648438 2.765625 -30.605469 C 2.203125 -30.605469 1.945312 -30.5625 1.902344 -29.742188 C 1.859375 -29.007812 1.859375 -28.316406 1.859375 -27.539062 C 1.816406 -27.105469 1.816406 -26.671875 1.773438 -26.242188 C 1.773438 -25.503906 1.730469 -24.769531 1.730469 -24.078125 C 1.730469 -23.042969 1.773438 -22.003906 1.816406 -20.964844 C 1.816406 -17.941406 1.816406 -14.871094 1.816406 -11.84375 Z M 1.816406 -11.84375 "/></g></g></g><g fill="#1a7baf" fill-opacity="1"><g transform="translate(179.200672, 246.802805)"><g><path d="M 7.175781 -26.976562 C 7.132812 -26.976562 7.132812 -26.976562 7.132812 -26.976562 C 7.132812 -28.011719 7.132812 -29.09375 7.132812 -30.132812 C 7.132812 -30.648438 6.917969 -30.824219 6.398438 -30.78125 C 6.050781 -30.738281 5.707031 -30.738281 5.402344 -30.738281 C 4.796875 -30.738281 4.148438 -30.738281 3.542969 -30.738281 C 3.15625 -30.738281 2.808594 -30.691406 2.421875 -30.648438 C 2.074219 -30.605469 1.902344 -30.433594 1.859375 -30.089844 C 1.816406 -29.570312 1.773438 -29.050781 1.773438 -28.53125 C 1.773438 -27.710938 1.816406 -26.890625 1.816406 -26.066406 C 1.816406 -24.945312 1.816406 -23.777344 1.816406 -22.609375 C 1.816406 -22.132812 1.859375 -21.660156 1.859375 -21.183594 C 1.859375 -18.804688 1.902344 -16.425781 1.859375 -14.050781 C 1.859375 -12.320312 1.859375 -10.546875 1.773438 -8.777344 C 1.730469 -7.003906 1.730469 -5.1875 1.773438 -3.371094 C 1.816406 -2.507812 1.773438 -1.597656 1.773438 -0.734375 C 1.773438 -0.476562 1.730469 -0.257812 1.730469 0 C 1.730469 0.347656 1.859375 0.433594 2.203125 0.476562 C 2.292969 0.476562 2.378906 0.476562 2.464844 0.476562 C 3.761719 0.476562 5.058594 0.476562 6.355469 0.433594 C 6.570312 0.433594 6.832031 0.300781 6.917969 0 C 6.917969 -0.0859375 6.960938 -0.214844 6.960938 -0.347656 C 7.003906 -1.773438 7.046875 -3.242188 7.089844 -4.710938 C 7.089844 -5.058594 7.132812 -5.445312 7.132812 -5.792969 C 7.175781 -6.441406 7.21875 -7.089844 7.21875 -7.738281 C 7.261719 -9.335938 7.261719 -10.9375 7.261719 -12.492188 C 7.261719 -13.054688 7.21875 -13.617188 7.21875 -14.179688 C 7.175781 -14.957031 7.132812 -15.777344 7.132812 -16.558594 C 7.132812 -17.335938 7.175781 -18.113281 7.175781 -18.847656 C 7.175781 -20.230469 7.132812 -21.570312 7.132812 -22.910156 C 7.132812 -23.214844 7.175781 -23.515625 7.175781 -23.863281 C 7.175781 -24.902344 7.175781 -25.9375 7.175781 -26.976562 Z M 7.175781 -26.976562 "/></g></g></g><g fill="#1a7baf" fill-opacity="1"><g transform="translate(188.190177, 246.802805)"><g><path d="M 8.863281 0.171875 C 9.164062 0.171875 9.46875 0.128906 9.769531 0.171875 C 10.9375 0.214844 12.0625 0.171875 13.183594 -0.0429688 C 13.789062 -0.128906 14.351562 -0.257812 14.871094 -0.519531 C 14.957031 -0.605469 15.085938 -0.605469 15.171875 -0.648438 C 16.382812 -1.210938 17.464844 -2.03125 18.460938 -2.941406 C 18.761719 -3.199219 18.976562 -3.589844 19.238281 -3.890625 C 19.800781 -4.496094 20.1875 -5.1875 20.535156 -5.921875 C 20.921875 -6.789062 21.226562 -7.695312 21.484375 -8.601562 C 21.703125 -9.335938 21.832031 -10.117188 22.003906 -10.894531 C 22.308594 -12.234375 22.4375 -13.617188 22.4375 -15 C 22.4375 -15.910156 22.351562 -16.859375 22.308594 -17.765625 C 22.261719 -18.589844 22.21875 -19.367188 22.046875 -20.144531 C 21.960938 -20.75 21.875 -21.355469 21.832031 -21.960938 C 21.789062 -22.867188 21.527344 -23.691406 21.183594 -24.511719 C 20.707031 -25.460938 20.101562 -26.328125 19.496094 -27.148438 C 19.019531 -27.753906 18.503906 -28.273438 17.855469 -28.617188 C 17.636719 -28.746094 17.421875 -28.878906 17.25 -29.007812 C 16.601562 -29.570312 15.867188 -29.957031 15.171875 -30.390625 C 14.480469 -30.78125 13.789062 -30.953125 13.011719 -30.867188 C 12.492188 -30.78125 11.976562 -30.738281 11.457031 -30.824219 C 11.28125 -30.867188 11.152344 -30.867188 10.980469 -30.867188 C 9.8125 -30.824219 8.644531 -30.78125 7.480469 -30.78125 C 6.398438 -30.78125 5.359375 -30.824219 4.324219 -30.824219 C 3.804688 -30.824219 3.285156 -30.738281 2.765625 -30.648438 C 2.378906 -30.605469 2.117188 -30.347656 2.074219 -29.957031 C 2.03125 -29.570312 1.988281 -29.179688 1.988281 -28.792969 C 1.988281 -28.316406 1.988281 -27.839844 1.945312 -27.363281 C 1.859375 -27.105469 1.902344 -26.800781 1.902344 -26.542969 C 1.902344 -25.894531 1.988281 -25.246094 1.988281 -24.554688 C 1.988281 -23.777344 1.902344 -22.957031 1.902344 -22.132812 C 1.773438 -19.0625 1.730469 -15.953125 1.816406 -12.882812 C 1.859375 -11.542969 1.859375 -10.203125 1.902344 -8.863281 C 1.945312 -7.21875 1.988281 -5.621094 2.074219 -4.019531 C 2.117188 -2.851562 2.203125 -1.730469 2.292969 -0.605469 C 2.335938 -0.257812 2.550781 0 2.894531 0.0429688 C 3.113281 0.0859375 3.328125 0.0859375 3.542969 0.0859375 C 4.105469 0.0859375 4.710938 0.0859375 5.230469 0.0859375 C 5.792969 0.128906 6.3125 0.171875 6.875 0.171875 C 7.523438 0.171875 8.214844 0.171875 8.863281 0.171875 Z M 8.601562 -15 C 8.601562 -15.910156 8.601562 -16.773438 8.601562 -17.679688 C 8.558594 -19.496094 8.515625 -21.355469 8.472656 -23.171875 C 8.472656 -23.257812 8.472656 -23.34375 8.515625 -23.429688 C 8.515625 -23.472656 8.601562 -23.558594 8.644531 -23.605469 C 8.820312 -23.648438 8.992188 -23.648438 9.164062 -23.648438 C 9.683594 -23.691406 10.203125 -23.691406 10.722656 -23.691406 C 11.371094 -23.691406 11.976562 -23.558594 12.449219 -23.042969 C 12.625 -22.910156 12.796875 -22.78125 12.96875 -22.695312 C 13.703125 -22.261719 14.179688 -21.570312 14.4375 -20.792969 C 14.785156 -19.800781 15.085938 -18.804688 15.304688 -17.765625 C 15.605469 -16.644531 15.734375 -15.519531 15.691406 -14.394531 C 15.691406 -14.050781 15.691406 -13.660156 15.734375 -13.316406 C 15.734375 -12.710938 15.691406 -12.191406 15.5625 -11.628906 C 15.304688 -10.808594 15.128906 -10.03125 14.785156 -9.292969 C 14.308594 -8.429688 13.660156 -7.738281 12.796875 -7.261719 C 12.0625 -6.917969 11.28125 -6.789062 10.503906 -6.65625 C 9.984375 -6.613281 9.46875 -6.527344 8.949219 -6.484375 C 8.601562 -6.484375 8.558594 -6.527344 8.558594 -6.875 C 8.558594 -8.300781 8.558594 -9.769531 8.558594 -11.238281 C 8.558594 -12.492188 8.601562 -13.746094 8.601562 -15 Z M 8.601562 -15 "/></g></g></g><g fill="#1a7baf" fill-opacity="1"><g transform="translate(211.485105, 246.802805)"><g><path d="M 7.175781 -26.976562 C 7.132812 -26.976562 7.132812 -26.976562 7.132812 -26.976562 C 7.132812 -28.011719 7.132812 -29.09375 7.132812 -30.132812 C 7.132812 -30.648438 6.917969 -30.824219 6.398438 -30.78125 C 6.050781 -30.738281 5.707031 -30.738281 5.402344 -30.738281 C 4.796875 -30.738281 4.148438 -30.738281 3.542969 -30.738281 C 3.15625 -30.738281 2.808594 -30.691406 2.421875 -30.648438 C 2.074219 -30.605469 1.902344 -30.433594 1.859375 -30.089844 C 1.816406 -29.570312 1.773438 -29.050781 1.773438 -28.53125 C 1.773438 -27.710938 1.816406 -26.890625 1.816406 -26.066406 C 1.816406 -24.945312 1.816406 -23.777344 1.816406 -22.609375 C 1.816406 -22.132812 1.859375 -21.660156 1.859375 -21.183594 C 1.859375 -18.804688 1.902344 -16.425781 1.859375 -14.050781 C 1.859375 -12.320312 1.859375 -10.546875 1.773438 -8.777344 C 1.730469 -7.003906 1.730469 -5.1875 1.773438 -3.371094 C 1.816406 -2.507812 1.773438 -1.597656 1.773438 -0.734375 C 1.773438 -0.476562 1.730469 -0.257812 1.730469 0 C 1.730469 0.347656 1.859375 0.433594 2.203125 0.476562 C 2.292969 0.476562 2.378906 0.476562 2.464844 0.476562 C 3.761719 0.476562 5.058594 0.476562 6.355469 0.433594 C 6.570312 0.433594 6.832031 0.300781 6.917969 0 C 6.917969 -0.0859375 6.960938 -0.214844 6.960938 -0.347656 C 7.003906 -1.773438 7.046875 -3.242188 7.089844 -4.710938 C 7.089844 -5.058594 7.132812 -5.445312 7.132812 -5.792969 C 7.175781 -6.441406 7.21875 -7.089844 7.21875 -7.738281 C 7.261719 -9.335938 7.261719 -10.9375 7.261719 -12.492188 C 7.261719 -13.054688 7.21875 -13.617188 7.21875 -14.179688 C 7.175781 -14.957031 7.132812 -15.777344 7.132812 -16.558594 C 7.132812 -17.335938 7.175781 -18.113281 7.175781 -18.847656 C 7.175781 -20.230469 7.132812 -21.570312 7.132812 -22.910156 C 7.132812 -23.214844 7.175781 -23.515625 7.175781 -23.863281 C 7.175781 -24.902344 7.175781 -25.9375 7.175781 -26.976562 Z M 7.175781 -26.976562 "/></g></g></g><g fill="#1a7baf" fill-opacity="1"><g transform="translate(220.47461, 246.802805)"><g><path d="M 1.816406 -14.914062 C 1.816406 -13.011719 1.816406 -11.066406 1.773438 -9.164062 C 1.773438 -8.300781 1.773438 -7.4375 1.773438 -6.527344 C 1.773438 -4.539062 1.773438 -2.507812 1.816406 -0.476562 C 1.816406 0.0429688 1.816406 0.0859375 2.378906 0.171875 C 2.464844 0.171875 2.550781 0.171875 2.636719 0.171875 C 3.113281 0.171875 3.589844 0.128906 4.019531 0.171875 C 5.015625 0.257812 6.007812 0.257812 7.003906 0.257812 C 7.175781 0.257812 7.304688 0.214844 7.4375 0.214844 C 7.824219 0.128906 7.996094 -0.0859375 8.039062 -0.476562 C 8.039062 -1.382812 8.085938 -2.335938 8.085938 -3.242188 C 8.039062 -5.316406 7.996094 -7.390625 7.996094 -9.46875 C 7.996094 -10.679688 8.039062 -11.886719 8.085938 -13.097656 C 8.085938 -13.273438 8.128906 -13.359375 8.300781 -13.359375 C 8.6875 -13.359375 9.078125 -13.402344 9.46875 -13.402344 C 10.722656 -13.445312 11.929688 -13.445312 13.140625 -13.359375 C 13.964844 -13.316406 14.828125 -13.359375 15.648438 -13.402344 C 15.910156 -13.445312 15.996094 -13.53125 15.996094 -13.832031 C 15.996094 -14.179688 16.039062 -14.523438 16.039062 -14.871094 C 16.039062 -15.820312 16.039062 -16.730469 15.996094 -17.636719 C 15.996094 -17.855469 15.910156 -18.070312 15.820312 -18.242188 C 15.648438 -18.589844 15.347656 -18.675781 15 -18.71875 C 13.789062 -18.71875 12.578125 -18.761719 11.414062 -18.761719 C 11.328125 -18.761719 11.238281 -18.761719 11.152344 -18.761719 C 10.332031 -18.71875 9.46875 -18.675781 8.601562 -18.632812 C 8.386719 -18.632812 8.34375 -18.675781 8.34375 -18.933594 C 8.34375 -19.28125 8.386719 -19.625 8.34375 -19.972656 C 8.34375 -21.355469 8.300781 -22.695312 8.300781 -24.078125 C 8.300781 -24.382812 8.300781 -24.382812 8.601562 -24.425781 C 9.207031 -24.46875 9.8125 -24.511719 10.417969 -24.554688 C 11.109375 -24.554688 11.84375 -24.640625 12.535156 -24.640625 C 13.445312 -24.683594 14.308594 -24.683594 15.21875 -24.683594 C 15.648438 -24.683594 16.125 -24.683594 16.558594 -24.726562 C 17.25 -24.8125 17.550781 -24.988281 17.636719 -25.722656 C 17.8125 -27.019531 17.8125 -28.316406 17.765625 -29.613281 C 17.765625 -29.742188 17.765625 -29.828125 17.722656 -29.914062 C 17.59375 -30.347656 17.421875 -30.691406 16.902344 -30.738281 C 16.425781 -30.824219 15.953125 -30.910156 15.476562 -30.910156 C 14.785156 -30.953125 14.09375 -30.910156 13.402344 -30.910156 C 11.152344 -30.910156 8.949219 -30.910156 6.699219 -30.910156 C 5.445312 -30.867188 4.148438 -30.738281 2.894531 -30.5625 C 2.550781 -30.519531 2.246094 -30.390625 2.03125 -30.132812 C 1.902344 -30.042969 1.816406 -29.828125 1.816406 -29.699219 C 1.773438 -29.265625 1.730469 -28.835938 1.773438 -28.402344 C 1.773438 -25.722656 1.816406 -23 1.816406 -20.273438 C 1.816406 -18.503906 1.816406 -16.730469 1.816406 -14.914062 Z M 1.816406 -14.914062 "/></g></g></g><g fill="#1a7baf" fill-opacity="1"><g transform="translate(239.14513, 246.802805)"><g><path d="M 10.679688 -23.085938 C 10.546875 -23.300781 10.460938 -23.472656 10.375 -23.648438 C 10.117188 -24.121094 9.898438 -24.554688 9.683594 -24.988281 C 9.46875 -25.417969 9.207031 -25.894531 8.992188 -26.328125 C 8.90625 -26.542969 8.820312 -26.757812 8.6875 -26.933594 C 8.171875 -27.96875 7.652344 -28.964844 7.21875 -30.042969 C 7.175781 -30.175781 7.089844 -30.304688 7.046875 -30.433594 C 6.917969 -30.605469 6.789062 -30.738281 6.527344 -30.78125 C 5.964844 -30.824219 5.445312 -30.867188 4.886719 -30.824219 C 4.238281 -30.78125 3.632812 -30.824219 2.984375 -30.78125 C 2.421875 -30.738281 1.859375 -30.691406 1.296875 -30.605469 C 0.90625 -30.5625 0.820312 -30.347656 0.949219 -30 C 1.210938 -29.441406 1.46875 -28.921875 1.773438 -28.359375 C 2.378906 -27.320312 2.941406 -26.199219 3.457031 -25.117188 C 4.019531 -23.949219 4.539062 -22.824219 5.1875 -21.746094 C 6.007812 -20.363281 6.832031 -18.933594 7.652344 -17.550781 C 8.085938 -16.859375 8.171875 -16.125 8.128906 -15.347656 C 8.039062 -13.574219 8.085938 -11.800781 8.128906 -10.074219 C 8.171875 -8.777344 8.214844 -7.523438 8.257812 -6.269531 C 8.257812 -4.410156 8.257812 -2.507812 8.257812 -0.648438 C 8.257812 -0.128906 8.601562 0.214844 9.164062 0.214844 C 10.460938 0.257812 11.757812 0.171875 13.054688 0.0429688 C 13.488281 0 13.789062 -0.300781 13.789062 -0.734375 C 13.832031 -1.988281 13.832031 -3.199219 13.832031 -4.410156 C 13.832031 -6.699219 13.832031 -8.992188 13.832031 -11.28125 C 13.832031 -11.886719 13.832031 -12.449219 13.789062 -13.011719 C 13.789062 -13.445312 13.789062 -13.875 13.789062 -14.308594 C 13.789062 -14.699219 13.789062 -15.085938 13.789062 -15.476562 C 13.789062 -15.953125 13.832031 -16.46875 14.007812 -16.945312 C 14.179688 -17.507812 14.351562 -18.070312 14.613281 -18.632812 C 15.171875 -19.929688 15.777344 -21.183594 16.382812 -22.480469 C 16.773438 -23.214844 17.164062 -23.949219 17.550781 -24.726562 C 18.113281 -25.808594 18.675781 -26.890625 19.238281 -27.96875 C 19.410156 -28.273438 19.539062 -28.574219 19.710938 -28.921875 C 19.84375 -29.222656 19.972656 -29.570312 20.144531 -29.871094 C 20.230469 -30.089844 20.40625 -30.261719 20.273438 -30.476562 C 20.144531 -30.78125 19.886719 -30.691406 19.625 -30.691406 C 19.019531 -30.648438 18.460938 -30.605469 17.855469 -30.605469 C 16.859375 -30.5625 15.910156 -30.519531 14.914062 -30.476562 C 14.742188 -30.476562 14.613281 -30.433594 14.523438 -30.261719 C 14.394531 -30.042969 14.222656 -29.785156 14.136719 -29.570312 C 13.574219 -28.359375 13.011719 -27.191406 12.320312 -26.066406 C 11.757812 -25.160156 11.238281 -24.253906 10.808594 -23.257812 C 10.765625 -23.214844 10.722656 -23.171875 10.679688 -23.085938 Z M 10.679688 -23.085938 "/></g></g></g></svg>