<!DOCTYPE svg PUBLIC "-//W3C//DTD SVG 1.1//EN" "http://www.w3.org/Graphics/SVG/1.1/DTD/svg11.dtd">
<!-- Uploaded to: SVG Repo, www.svgrepo.com, Transformed by: SVG Repo Mixer Tools -->
<svg fill="#32a9a1" height="800px" width="800px" version="1.1" id="Layer_1" xmlns="http://www.w3.org/2000/svg" xmlns:xlink="http://www.w3.org/1999/xlink" viewBox="0 0 254.644 254.644" xml:space="preserve" stroke="#32a9a1">
<g id="SVGRepo_bgCarrier" stroke-width="0"/>
<g id="SVGRepo_tracerCarrier" stroke-linecap="round" stroke-linejoin="round"/>
<g id="SVGRepo_iconCarrier"> <g> <g> <g> <path d="M154.697,0c2.065,1.554,4.058,3.262,5.932,5.22c22.701,23.688,24.4,70.454,24.347,85.197h10.55l-68.206,89.401 L59.118,90.416h10.495C69.558,75.673,71.26,28.907,93.96,5.219c1.863-1.944,3.842-3.639,5.89-5.187 C64.644,11.607,39.146,44.774,39.146,83.803c0,0.051,0.013,0.099,0.015,0.152c0.007,0.278,0.042,0.553,0.084,0.831 c0.024,0.159,0.04,0.32,0.075,0.474c0.055,0.249,0.141,0.492,0.227,0.734c0.06,0.17,0.112,0.342,0.183,0.503 c0.095,0.212,0.214,0.41,0.333,0.613c0.104,0.179,0.203,0.359,0.322,0.527c0.042,0.057,0.066,0.123,0.11,0.181l73.877,96.838 h-12.953c-10.938,0-19.839,8.899-19.839,19.839v30.31c0,10.94,8.901,19.839,19.839,19.839h54.558 c10.94,0,19.839-8.899,19.839-19.839v-30.31c0-10.94-8.899-19.839-19.839-19.839h-15.711l73.877-96.838 c0.044-0.055,0.066-0.117,0.108-0.174c0.126-0.176,0.229-0.364,0.337-0.551c0.115-0.198,0.232-0.39,0.322-0.59 c0.075-0.172,0.132-0.35,0.194-0.529c0.082-0.234,0.165-0.467,0.22-0.708c0.037-0.163,0.051-0.331,0.077-0.496 c0.04-0.271,0.075-0.538,0.082-0.809c0-0.053,0.015-0.104,0.015-0.157C215.498,44.738,189.952,11.547,154.697,0z"/> <path d="M120.649,90.416V4.864c-6.562,1.23-12.208,4.365-17.126,9.492c-19.16,19.976-20.675,62.862-20.668,76.06H120.649z"/> <path d="M151.067,14.356c-4.918-5.127-10.563-8.262-17.126-9.492v85.552h37.796C171.744,77.218,170.225,34.332,151.067,14.356z"/> </g> </g> </g> </g>
</svg>